<?xml version="1.0" encoding="UTF-8"?>
<svg width="130px" height="72px" viewBox="0 0 130 72" version="1.1" xmlns="http://www.w3.org/2000/svg" xmlns:xlink="http://www.w3.org/1999/xlink">
    <!-- Generator: Sketch 63.1 (92452) - https://sketch.com -->
    <title>default_logo</title>
    <desc>Created with Sketch.</desc>
    <g id="伙办" stroke="none" stroke-width="1" fill="none" fill-rule="evenodd">
        <g id="0启动页" transform="translate(-141.000000, -730.000000)">
            <g id="default_logo" transform="translate(141.000000, 730.000000)">
                <g>
                    <path d="M129.768582,13.6669586 C129.412758,16.1779705 128.227974,20.2683331 127.859835,22.5284383 C127.579194,24.2484782 127.675118,24.5369885 125.814981,24.5071649 C125.361289,24.5000332 124.180393,24.5097583 123.715035,24.5071649 C122.422661,24.5000332 122.049986,24.2199513 122.744782,21.5144381 C123.360507,19.1149403 124.092248,15.6152134 124.501218,13.3479765 C124.89593,11.1565951 124.711213,11.1663201 126.514963,11.2032754 C126.740512,11.2078138 128.350471,11.2013304 128.614908,11.2032754 C130.371992,11.2155938 130.071259,11.5352243 129.768582,13.6669586 Z M118.27462,27.4882216 C117.936944,29.0170019 116.562906,30.0977809 115.112388,30.0977809 C115.112388,30.0977809 113.578261,30.0420238 111.649422,30.0977809 C108.955788,30.1755814 109.281798,30.0303538 111.048604,27.5562971 C113.272343,24.4423311 114.395554,18.4698443 114.250373,19.066315 C115.31979,14.6790138 116.59596,9.89168944 116.59596,9.89168944 L113.890012,9.89168944 C113.890012,9.89168944 108.967454,20.8421119 106.588812,26.6168558 C105.130516,30.1554829 105.571894,30.1548346 102.015597,30.1088026 C101.521721,30.1023192 100.408879,30.1010226 99.9156515,30.1088026 C97.693209,30.1431645 97.6718207,29.7969522 98.5156877,28.0081885 C101.058955,22.6179089 106.288727,9.89168944 106.288727,9.89168944 C106.288727,9.89168944 103.08631,9.80870101 100.592301,9.89168944 C98.1138463,9.97402712 97.7165418,9.99801561 98.0146822,8.35512789 C98.0529219,8.14441814 98.0950505,7.92787335 98.1313458,7.71651526 C98.4243012,6.00101372 98.5610569,6.13262627 101.298764,6.15531809 C104.087673,6.17865825 107.917481,6.15531809 107.917481,6.15531809 L109.073099,2.74246846 C109.073099,2.74246846 109.573457,1.42634293 110.759537,1.41013449 C112.14265,1.3913327 113.81094,1.44838641 115.112388,1.3965194 C116.690587,1.33427898 117.014653,1.86656423 116.474112,3.40117955 C115.986717,4.78343552 115.518118,6.15531809 115.518118,6.15531809 C115.518118,6.15531809 118.463227,6.16180147 120.913811,6.15531809 C123.652166,6.14818637 124.157061,6.3310176 123.484948,9.09423287 C122.071374,14.9033386 118.27462,27.4882216 118.27462,27.4882216 Z M99.9156515,11.2032754 C100.445175,11.200682 101.483481,11.2026271 102.015597,11.2032754 C103.123254,11.2039237 103.503707,11.2324506 102.712338,13.130135 C101.779677,15.3669001 100.039445,19.1914441 99.0141007,21.7069944 C98.0769028,24.0053515 98.0600514,23.8153886 96.4157421,23.8069602 C95.9672352,23.8043669 94.7643034,23.8024218 94.3157965,23.8069602 C92.8419458,23.8212236 92.7991691,23.9048592 93.7577554,21.7173678 C94.9341138,19.0338981 96.7501779,14.7295841 97.6886721,12.6361017 C98.2843048,11.3083061 98.5805009,11.2097588 99.9156515,11.2032754 Z M91.7459556,14.9124154 C91.3739282,16.2810562 91.7174379,16.4541624 89.8851705,16.447679 C89.2649088,16.4450857 88.526039,16.4470307 87.8701301,16.4593491 C86.2361909,16.4911176 86.2640606,16.1630588 86.6192365,14.9312171 C87.3477362,12.4046451 88.7768659,7.64973648 88.7768659,7.64973648 C88.7768659,7.64973648 88.7289041,6.90998317 89.7276746,6.90285145 C90.7160749,6.8950714 91.9676166,6.91516987 92.8879631,6.89831309 C93.7596998,6.88210465 94.1401529,6.80300745 93.8413643,7.9200933 C93.3902649,9.60641965 92.2845528,12.928502 91.7459556,14.9124154 Z M85.4331562,11.7297256 C84.9256693,14.8339665 85.9827716,19.417714 89.4159234,27.3079838 C90.4762663,29.7450852 90.519043,30.1029676 88.0159596,30.1088026 C87.0884837,30.1107476 85.4798216,30.1016709 84.5160503,30.1088026 C82.171111,30.1263077 82.4964729,29.422213 82.1283343,27.3066871 C81.7076971,24.8890358 80.79448,21.7685865 80.79448,21.7685865 C80.79448,21.7685865 78.2589901,25.2851702 76.8298604,27.788402 C75.6567427,29.8429842 76.0158074,29.9804318 73.3163403,30.1088026 C72.7038562,30.1379778 71.3434284,30.1029676 70.5164128,30.1088026 C67.862963,30.1282527 67.6315801,29.9065213 69.1080234,27.9012128 C72.9222765,22.7177529 77.4105861,17.987481 78.8163831,11.4755772 C79.3303512,9.0948812 80.0225555,6.24025033 80.3543988,4.5766158 C80.8054982,2.32040061 80.5203204,2.28928041 82.669524,2.21666658 C83.5665378,2.18619471 84.529661,2.16674458 85.3644542,2.18230469 C87.0748729,2.21472157 87.6867089,2.00790185 87.0969094,4.77889716 C86.6535875,6.86200618 85.7844434,9.57789279 85.4331562,11.7297256 Z M76.4500555,14.8819435 C76.3476507,15.9776342 75.9717345,16.491766 74.7124153,16.4593491 C74.0986349,16.443789 73.3863385,16.3828452 72.7531142,16.4593491 C71.2695415,16.6382903 71.1386189,16.0068094 71.1775068,15.0226328 C71.2481531,13.2364624 71.7562881,10.2190988 72.031744,8.44395016 C72.2514605,7.02733229 72.550249,7.06039751 73.7492921,6.97870696 C74.4434408,6.93137831 75.2574938,6.95082844 75.9380317,6.93332332 C77.0262442,6.90479647 77.3846609,6.93721335 77.2090173,8.46080694 C77.0048559,10.2307688 76.6159771,13.1016082 76.4500555,14.8819435 Z M66.5952181,29.4066529 C66.5213311,29.9486632 66.0106036,30.3882362 65.4545069,30.3882362 L61.4276667,30.3882362 C60.8722181,30.3882362 60.4813949,29.9486632 60.55593,29.4066529 L64.2775003,9.00930063 C63.2871556,9.01319065 62.3013478,9.01383899 62.5482858,9.00087224 C60.1689956,9.1292431 62.5904144,6.65388978 62.8166122,6.30184241 C64.2360199,4.09425255 65.2075688,3.27929207 65.761073,2.9771667 C65.8550521,2.91751963 65.9574568,2.87343267 66.0643985,2.8429608 C66.0896756,2.83453241 66.1130083,2.82740069 66.1343967,2.82221399 C66.1473593,2.81962064 66.1603219,2.81573061 66.1732846,2.8137856 C66.254301,2.79757716 66.2996702,2.79887383 66.3106884,2.80017051 C66.3288361,2.79952217 66.3463356,2.79498381 66.3644833,2.79498381 L70.3491949,2.79498381 C70.8994585,2.79498381 71.2857448,3.22807339 71.2125059,3.76295199 L66.5952181,29.4066529 Z M61.710252,33.9521485 C62.1159822,33.9521485 62.4322703,34.1168263 62.6591163,34.4448851 C62.8859623,34.7735923 62.958553,35.1697267 62.8768885,35.6332881 L62.3830124,38.4373487 L66.4798507,38.4373487 L66.9743749,35.6332881 C67.0553913,35.1749134 67.2679784,34.7807241 67.6140806,34.4494235 C67.9601827,34.1181229 68.3335064,33.9521485 68.7340516,33.9521485 C69.1345968,33.9521485 69.4495886,34.1168263 69.6790271,34.4448851 C69.9084656,34.7735923 69.9830007,35.1697267 69.9013362,35.6332881 L68.4197079,44.0370413 C68.3380433,44.5006028 68.12416,44.8967371 67.7793541,45.224796 C67.4339001,45.5535032 67.0605764,45.718181 66.6600312,45.718181 C66.259486,45.718181 65.9457905,45.5535032 65.7189445,45.224796 C65.4920985,44.8967371 65.4195078,44.5006028 65.5011723,44.0370413 L66.0540284,40.8530549 L61.95719,40.8530549 L61.3959083,44.0370413 C61.3142437,44.5006028 61.1016566,44.8967371 60.7594433,45.224796 C60.4165818,45.5535032 60.0419619,45.718181 59.6362316,45.718181 C59.2350383,45.718181 58.9213427,45.5535032 58.6944968,45.224796 C58.4676508,44.8967371 58.3950601,44.5006028 58.4767246,44.0370413 L59.9583529,35.6332881 C60.0400175,35.1697267 60.2519564,34.7735923 60.5948179,34.4448851 C60.9376794,34.1168263 61.3090587,33.9521485 61.710252,33.9521485 Z M47.0326691,36.9656221 C46.1829689,41.7581343 41.4140184,45.5133063 36.1751725,45.5133063 C33.3720044,45.5133063 30.8306813,44.3994621 29.2045197,42.4576907 C27.7015031,40.6643886 27.1065185,38.3666799 27.5278039,35.9879288 C27.7980747,34.4643353 29.2537777,33.4490384 30.7717014,33.7193952 C32.2935138,33.9891037 33.3091357,35.4426768 33.0388649,36.9656221 C32.9079423,37.7060237 33.0609013,38.3433397 33.493205,38.8594165 C34.0544867,39.528501 35.0312207,39.9123169 36.1751725,39.9123169 C38.6529787,39.9123169 41.150877,38.0788179 41.52096,35.9879288 L46.3845378,8.54768419 C46.5161084,7.80728254 46.3625013,7.16996658 45.9301977,6.65324144 C45.3695641,5.98480527 44.392182,5.60098936 43.2482301,5.60098936 C40.6926481,5.60098936 37.9400343,7.49478377 37.5848583,9.49814725 C37.5842101,9.5007406 37.5829139,9.50333395 37.5822657,9.5059273 C37.5809695,9.51370736 37.5822657,9.52083907 37.5809695,9.52861912 L36.8200633,13.7765277 C36.1012856,17.7916831 32.0925931,20.9374176 27.6930774,20.9374176 L20.8157555,20.9374176 C19.2699622,20.9374176 18.0164761,19.6835325 18.0164761,18.1365987 C18.0164761,16.5903133 19.2699622,15.3364282 20.8157555,15.3364282 L27.6930774,15.3364282 C29.5026602,15.3364282 31.0951189,13.9911275 31.3102985,12.7884611 L32.0712048,8.54055247 C32.0712048,8.53860746 32.0718529,8.53731078 32.072501,8.53536577 C32.0731492,8.53017907 32.072501,8.52499237 32.0737973,8.51915733 C32.9066461,3.82130238 37.9199422,0 43.2482301,0 C46.0520464,0 48.5927213,1.11319582 50.2188829,3.05496722 C51.7225477,4.84826929 52.3175323,7.14662643 51.8955988,9.52537743 L47.0326691,36.9656221 Z M22.061464,11.8431847 C20.5402997,11.5721795 19.525326,10.1186064 19.7962449,8.59501284 C19.9265193,7.85979789 19.7748565,7.22572362 19.3444973,6.71159183 C18.7838637,6.04250733 17.8058335,5.65933975 16.6605853,5.65933975 C14.1827791,5.65933975 11.6842327,7.48959707 11.3141497,9.57594777 L6.4512201,36.9753472 C6.32029756,37.7112104 6.47260843,38.3452847 6.90361579,38.8600648 C7.46360129,39.528501 8.44227965,39.9123169 9.58752777,39.9123169 C12.0821854,39.9123169 14.9015568,37.8149445 15.2807137,35.6780234 C15.3046945,35.5425208 15.3487675,35.416095 15.390896,35.2896691 L16.0085652,31.6965816 C16.7253985,27.6658662 20.7308503,24.52078 25.1310141,24.52078 L32.0238912,24.52078 C33.5696845,24.52078 34.8225224,25.7746651 34.8225224,27.3215989 C34.8225224,28.8678843 33.5696845,30.1217694 32.0238912,30.1217694 L25.1310141,30.1217694 C23.4484651,30.1217694 21.7633236,31.3088757 21.5228668,32.6613081 L20.7956634,36.8904149 C20.7535349,37.1348382 20.6718703,37.3604597 20.5733544,37.5763562 C19.2757954,41.9643057 14.4724938,45.5133063 9.58752777,45.5133063 C6.78176709,45.5133063 4.23979589,44.3994621 2.61298617,42.4576907 C1.11256206,40.6656853 0.518225599,38.3712182 0.939510985,35.9957089 L5.8024406,8.59630951 C6.65343708,3.80833563 11.4223877,0.057702055 16.6605853,0.057702055 C19.4656979,0.057702055 22.0083172,1.17219455 23.6344788,3.11396596 C25.1349029,4.90597135 25.7285912,7.20108679 25.3073058,9.57594777 C25.0363869,11.0982447 23.5845727,12.1115965 22.061464,11.8431847 Z M71.3738906,35.6488482 C71.4555552,35.1859351 71.666846,34.7898008 72.0064668,34.4610936 C72.3467358,34.1330347 72.7194113,33.9683569 73.1257897,33.9683569 C73.5263349,33.9683569 73.8413267,34.1330347 74.0714134,34.4610936 C74.3008519,34.7898008 74.3747388,35.1859351 74.2930743,35.6488482 L73.2243057,41.709509 C73.1011607,42.4103621 73.206158,42.941999 73.5405938,43.3057164 C73.8743814,43.6694339 74.3157589,43.8509684 74.864078,43.8509684 C75.4175822,43.8509684 75.9270135,43.6694339 76.3917236,43.3057164 C76.8564338,42.941999 77.1506855,42.4103621 77.2744786,41.709509 L78.342599,35.6488482 C78.4242636,35.1859351 78.6368507,34.7898008 78.979064,34.4610936 C79.3219255,34.1330347 79.6933048,33.9683569 80.0944981,33.9683569 C80.4950433,33.9683569 80.8100351,34.1330347 81.0394736,34.4610936 C81.2689121,34.7898008 81.3427991,35.1859351 81.2611346,35.6488482 L80.1845884,41.7581343 C80.0219074,42.6794222 79.6686758,43.4645592 79.1248936,44.1135452 C78.5804633,44.7631796 77.9141842,45.2435978 77.1260565,45.5560966 C76.3379287,45.8685953 75.4564701,46.0248447 74.4810324,46.0248447 C73.763551,46.0248447 73.1231972,45.9360225 72.5586748,45.7583779 C71.9935042,45.5807334 71.519072,45.3194533 71.134082,44.9745377 C70.7497401,44.629622 70.48271,44.184214 70.3336398,43.637017 C70.1852177,43.0904683 70.1729032,42.4641741 70.2973444,41.7581343 L71.3738906,35.6488482 Z M83.8569007,35.2449338 C84.9898343,34.2160219 86.4896103,33.7018901 88.3562286,33.7018901 C90.2176619,33.7018901 91.5340167,34.2160219 92.3046449,35.2449338 C93.0746249,36.2738458 93.2787863,37.8149445 92.917129,39.8675816 C92.5561198,41.9143837 91.8094725,43.4528891 90.6765389,44.481801 C89.5429571,45.5107129 88.0457737,46.0248447 86.1843404,46.0248447 C84.3177221,46.0248447 82.9987748,45.5107129 82.2287947,44.481801 C81.4581665,43.4528891 81.253357,41.9143837 81.6143662,39.8675816 C81.9760235,37.8149445 82.7233189,36.2738458 83.8569007,35.2449338 Z M84.7286374,42.9543174 C85.0209446,43.5520847 85.6340769,43.8509684 86.567386,43.8509684 C87.5058803,43.8509684 88.2272505,43.5520847 88.7308485,42.9543174 C89.2344466,42.35655 89.6148997,41.3276381 89.8722079,39.8675816 C90.1314604,38.3965034 90.114609,37.3624048 89.8216536,36.7646374 C89.5286982,36.1662217 88.9136216,35.867338 87.9744792,35.867338 C87.3470881,35.867338 86.8253423,35.9937639 86.4085939,36.2472639 C85.9924935,36.5001156 85.6431507,36.9176451 85.3618617,37.4998524 C85.0799246,38.0814113 84.8511342,38.8710866 84.6754906,39.8675816 C84.4181824,41.3276381 84.435682,42.35655 84.7286374,42.9543174 Z M94.8770782,35.4634236 C94.9678166,34.9460502 95.2050327,34.5661243 95.5880784,34.323646 C95.9704759,34.0811677 96.4287047,33.9605769 96.9608206,33.9605769 L99.2234472,33.9605769 C99.2707608,33.9605769 99.3446477,33.9605769 99.4451081,33.9605769 C99.7717663,33.9605769 100.014167,33.9618735 100.171663,33.9644669 C100.329807,33.9670602 100.563783,33.976137 100.874886,33.9923454 C101.185341,34.0085539 101.422557,34.0331907 101.585886,34.0656076 C101.748567,34.0973761 101.955969,34.1472981 102.208092,34.2147252 C102.459567,34.2821524 102.64947,34.3644913 102.777151,34.4610936 C102.905481,34.5583442 103.045478,34.6834734 103.197789,34.8371294 C103.3501,34.9907855 103.455097,35.16454 103.513429,35.3583929 C103.571112,35.5522459 103.61,35.7824058 103.628796,36.0488726 C103.647592,36.3159877 103.628796,36.6109814 103.57176,36.9338535 C103.460282,37.5640378 103.159549,38.1326299 102.669562,38.6389817 C102.179574,39.1453334 101.605978,39.4552388 100.948125,39.5686979 L100.942292,39.6004665 C101.701902,39.7191123 102.269665,40.0400394 102.647525,40.5625996 C103.024738,41.0851598 103.149179,41.709509 103.020849,42.4369439 C102.945666,42.8629018 102.792707,43.2681128 102.561324,43.6532254 C102.329941,44.038338 102.029856,44.3871437 101.661069,44.6996425 C101.292282,45.0121412 100.828869,45.2598062 100.272124,45.4432858 C99.7153789,45.626117 99.104191,45.718181 98.4398564,45.718181 L94.8887446,45.718181 C94.5614383,45.718181 94.3021857,45.6935442 94.1103388,45.6449188 C93.918492,45.5969418 93.7519222,45.4945045 93.6106296,45.3382551 C93.4693369,45.1820057 93.3896168,44.9492525 93.3701728,44.6393471 C93.3507289,44.3294416 93.3850799,43.9268239 93.4725776,43.4308456 L94.8770782,35.4634236 Z M100.438045,38.1987604 C100.592301,37.9802706 100.697298,37.7125071 100.753685,37.3948216 C100.809425,37.0771362 100.799703,36.810021 100.724519,36.5947729 C100.649336,36.3795248 100.511932,36.214847 100.312956,36.1013879 C100.11398,35.9885772 99.8929669,35.9107767 99.6505657,35.867338 C99.4075165,35.8245477 99.1171536,35.8025043 98.7801253,35.8025043 L97.6011744,35.8025043 L97.0360038,39.0104792 L98.048385,39.0104792 C98.42819,39.0104792 98.758737,38.9877874 99.0413223,38.9424037 C99.3232594,38.8963718 99.5883451,38.8153295 99.8352832,38.6999254 C100.082221,38.583873 100.283142,38.4166019 100.438045,38.1987604 Z M97.3334961,43.8756053 C97.7865399,43.8756053 98.1650487,43.8529134 98.4683741,43.8068815 C98.7716996,43.7608495 99.0503961,43.6746206 99.3051117,43.5481947 C99.5591792,43.4217689 99.7600999,43.2408827 99.9065776,43.0068327 C100.053703,42.7721345 100.158701,42.4745475 100.222218,42.1140717 C100.330456,41.4994476 100.179441,41.0689514 99.7698219,40.820638 C99.3602029,40.572973 98.7204972,40.4491405 97.8500568,40.4491405 L96.7825845,40.4491405 L96.178526,43.8756053 L97.3334961,43.8756053 Z M107.48453,36.0773994 C107.717857,35.619673 107.954425,35.2358571 108.193585,34.9259517 C108.432746,34.6160463 108.671906,34.3806997 108.911715,34.2186153 C109.150875,34.0571792 109.380314,33.9456651 109.599382,33.8834247 C109.818451,33.8218326 110.060204,33.7907124 110.323993,33.7907124 C110.587134,33.7907124 110.817869,33.8218326 111.015549,33.8834247 C111.212581,33.9456651 111.402484,34.0571792 111.585257,34.2186153 C111.767382,34.3806997 111.923581,34.6160463 112.053856,34.9259517 C112.183482,35.2358571 112.28459,35.619673 112.357181,36.0773994 L113.899086,43.7057408 C113.947047,44.0934467 113.906215,44.4454941 113.776589,44.7605862 C113.647611,45.0756783 113.452523,45.3045415 113.193271,45.4471758 C112.93337,45.5898101 112.672173,45.6708523 112.410976,45.6896541 C112.149131,45.7084559 111.908026,45.618337 111.687013,45.418649 C111.466649,45.2196093 111.328597,44.9343407 111.272857,44.5621949 L111.018142,43.0431397 L106.367151,43.0431397 L105.577727,44.5621949 C105.390417,44.9343407 105.151905,45.2196093 104.860894,45.418649 C104.569883,45.618337 104.297019,45.7084559 104.042304,45.6896541 C103.78694,45.6708523 103.554909,45.5898101 103.344915,45.4471758 C103.135568,45.3045415 103.021497,45.0756783 103.003349,44.7605862 C102.985202,44.4454941 103.068162,44.0934467 103.25288,43.7057408 L107.48453,36.0773994 Z M110.73102,41.35422 L109.880671,36.3036693 L107.250554,41.35422 L110.73102,41.35422 Z M116.253099,35.6734851 C116.347078,35.1399031 116.558369,34.7197803 116.886971,34.4124682 C117.214926,34.1058045 117.585009,33.9521485 117.996572,33.9521485 C118.570168,33.9573352 119.076359,34.4208966 119.515144,35.3421845 L123.103847,41.5480729 L124.206319,35.2935592 C124.271132,34.9272484 124.444831,34.6121563 124.728713,34.3482828 C125.012594,34.0844094 125.32629,33.9521485 125.669151,33.9521485 C126.011365,33.9521485 126.280987,34.0844094 126.477371,34.3482828 C126.673107,34.6121563 126.738568,34.9272484 126.674403,35.2935592 L125.266662,43.2771896 C125.204441,43.633127 125.132498,43.9417357 125.05213,44.2030158 C124.971762,44.4642959 124.862876,44.7171476 124.724824,44.9622192 C124.586772,45.2072909 124.408536,45.3946605 124.190764,45.5236797 C123.972991,45.6533472 123.718924,45.718181 123.428561,45.718181 C123.122643,45.718181 122.851076,45.5982385 122.614508,45.3583536 C122.376644,45.1184686 122.146557,44.7806847 121.922952,44.3443534 L118.316101,38.0165775 L117.194834,44.3767703 C117.130669,44.7430811 116.952432,45.0581732 116.660773,45.3220467 C116.369114,45.5859201 116.054122,45.718181 115.716446,45.718181 C115.373584,45.718181 115.105906,45.5859201 114.912763,45.3220467 C114.718972,45.0581732 114.654807,44.7430811 114.718972,44.3767703 L116.253099,35.6734851 Z" id="形状" fill="#F02E19"></path>
                    <path d="M4.19834585,71.1075776 L4.82391944,68.5980124 L8.72391944,68.5980124 L8.34632097,70.112795 C8.30687038,70.2710559 8.23907705,70.3162733 8.05820748,70.3162733 C7.90843306,70.3275776 7.33191132,70.3275776 6.67907705,70.3162733 C6.74421624,70.5084472 6.77268999,70.8023602 6.74739441,70.9945342 L7.12341672,70.9940814 C7.76705783,70.991591 8.16694577,70.9754037 8.45143477,70.8701863 C8.77634471,70.7458385 8.92031957,70.5310559 9.02458184,70.112795 L10.5462473,64.0084472 L9.86798647,64.0084472 L8.30516857,64.0197516 L9.1082698,60.7980124 L8.41870459,60.7980124 L7.61560335,64.0197516 L5.2869077,64.0197516 L3.52008498,71.1075776 L4.19834585,71.1075776 Z M0.985750733,64.2232298 C1.42635829,63.8614907 1.86690034,63.4093168 2.29892318,62.9006211 L5.0684884,62.9006211 L5.24601604,62.1884472 L2.86079865,62.1884472 C3.13465889,61.8154037 3.39436412,61.4084472 3.62582487,61.0240994 L3.01525908,60.8432298 C2.41406403,61.8945342 1.58956717,62.8893168 0.756354604,63.5562733 C0.852556191,63.7145342 0.96867958,64.0649689 0.985750733,64.2232298 Z M9.68960729,63.5449689 C10.2290051,63.0136646 10.9377388,62.1658385 11.5165544,61.4310559 L10.9341676,61.1371429 C10.4881208,61.792795 9.7257487,62.7197516 9.19201947,63.2736646 L9.68960729,63.5449689 Z M6.34918888,63.5675776 L7.04982918,63.2510559 C7.00703667,62.6971429 6.7209878,61.8493168 6.41531189,61.2162733 L5.76267412,61.4762733 C6.05989634,62.1432298 6.30357847,63.0249689 6.34918888,63.5675776 Z M0.668440422,70.9380124 C0.883092025,70.7571429 1.22209145,70.5762733 3.33806911,69.5249689 C3.31818006,69.3780124 3.312315,69.0840994 3.34042849,68.8806211 L1.86571875,69.5814907 L2.48847444,67.0832298 L4.09369183,67.0832298 L4.26276578,66.4049689 L2.65754839,66.4049689 L3.05769005,64.7997516 L4.40290745,64.7997516 L4.57479929,64.1101863 L1.36436451,64.1101863 L1.19247266,64.7997516 L2.35682049,64.7997516 L1.95667882,66.4049689 L0.306244038,66.4049689 L0.137170093,67.0832298 L1.78760488,67.0832298 L1.20711767,69.4119255 C1.08594801,69.8980124 0.684856544,70.1919255 0.46450364,70.3049689 C0.549400879,70.4632298 0.645700721,70.7571429 0.668440422,70.9380124 Z M9.36921833,66.0093168 L5.46921833,66.0093168 L5.78764093,64.7319255 L9.68764093,64.7319255 L9.36921833,66.0093168 Z M8.88735759,67.9423602 L4.98735759,67.9423602 L5.30578018,66.6649689 L9.20578018,66.6649689 L8.88735759,67.9423602 Z M25.5006814,67.3432298 L25.6162153,66.8797516 L32.98665,66.8797516 L33.1359987,66.2806211 L29.4846943,66.2806211 L29.7073084,65.3875776 L32.6125258,65.3875776 L32.7477849,64.8449689 L29.8425675,64.8449689 L30.0482742,64.0197516 L32.9082742,64.0197516 L33.0463512,63.4658385 L30.1863512,63.4658385 L30.3892399,62.6519255 L33.7918486,62.6519255 L33.9355615,62.0754037 L30.7138224,62.0754037 C30.6400657,61.6910559 30.4955668,61.1823602 30.3539841,60.7980124 L29.6136967,61.0014907 C29.7269694,61.3180124 29.8290033,61.7249689 29.8999093,62.0754037 L27.0512137,62.0754037 C27.3420468,61.7249689 27.6243935,61.3632298 27.8841315,61.0014907 L27.2254976,60.7867081 C26.3644663,62.0640994 25.1303588,63.2962733 23.9666005,64.1101863 C24.0966824,64.2232298 24.2947214,64.5171429 24.3626457,64.652795 C24.8061039,64.3249689 25.2777739,63.9293168 25.7268024,63.4884472 L24.7658988,67.3432298 L25.5006814,67.3432298 Z M29.4515686,63.4658385 L26.4672208,63.4658385 L26.6701095,62.6519255 L29.6544573,62.6519255 L29.4515686,63.4658385 Z M29.1077849,64.8449689 L26.1234371,64.8449689 L26.3291437,64.0197516 L29.3134915,64.0197516 L29.1077849,64.8449689 Z M28.7499117,66.2806211 L25.7655639,66.2806211 L25.9881779,65.3875776 L28.9725258,65.3875776 L28.7499117,66.2806211 Z M24.5595031,71.118882 L24.6975802,70.5649689 L30.6436671,70.5649689 L30.5055901,71.118882 L31.2742857,71.118882 L32.1140196,67.7501863 L24.6531501,67.7501863 L23.8134161,71.118882 L24.5595031,71.118882 Z M30.7986516,69.9432298 L24.8525646,69.9432298 L25.2442526,68.3719255 L31.1903395,68.3719255 L30.7986516,69.9432298 Z M53.5008267,63.5562733 L54.1475666,62.9571429 C53.6271736,62.4145342 52.6260674,61.4875776 51.8032094,60.8432298 L51.1846812,61.3745342 C51.9849305,62.018882 52.977583,62.9797516 53.5008267,63.5562733 Z M52.6244915,71.0171429 C53.811448,71.0171429 54.2094924,70.4180124 54.8382441,68.3945342 C54.6262467,68.3380124 54.3407218,68.2136646 54.1738762,68.0667081 C53.641064,69.8867081 53.4435163,70.2710559 52.7765598,70.2710559 L50.5156903,70.2710559 C49.8713424,70.2710559 49.7638692,70.1580124 49.8934926,69.6380124 L50.2231868,68.3154037 C52.9886241,66.5180124 55.3693532,64.2232298 57.2667151,61.7814907 L56.5967114,61.4762733 C55.0128241,63.612795 52.9032355,65.6814907 50.4570724,67.3771429 L51.4038865,63.578882 L50.6238865,63.578882 L49.5249059,67.9875776 C48.397813,68.6997516 47.2028286,69.3214907 45.9568927,69.8301863 C46.0785208,69.9771429 46.2397961,70.2371429 46.2992668,70.4067081 C47.3361214,69.9658385 48.3361795,69.4458385 49.2994739,68.8919255 L49.1191284,69.6154037 C48.8429743,70.7232298 49.1201437,71.0171429 50.2844915,71.0171429 L52.6244915,71.0171429 Z M47.0296922,68.292795 C47.9220151,67.2980124 48.7545399,65.6814907 49.3075686,64.4606211 L48.6546034,64.2684472 C48.1383056,65.4780124 47.2887751,67.0267081 46.4133923,67.998882 L47.0296922,68.292795 Z M56.0648805,68.552795 L56.8615914,68.2136646 C56.8043491,67.218882 56.3991297,65.7154037 55.8896152,64.5849689 L55.1465754,64.8901863 C55.6334812,66.0206211 56.0217605,67.5467081 56.0648805,68.552795 Z M70.5574764,66.3484472 C72.2444456,66.0658385 74.123425,65.5571429 75.858102,64.8110559 C77.0907672,65.4893168 78.662399,65.9414907 80.3440927,66.178882 C80.496554,65.9754037 80.7676291,65.658882 80.9681585,65.4893168 C79.3939052,65.3197516 77.9184094,64.9354037 76.7338778,64.3814907 C77.9740796,63.7597516 79.0954712,62.9797516 79.948278,62.052795 L79.5410923,61.7362733 L79.3941685,61.7814907 L75.3698207,61.7814907 C75.6663551,61.498882 75.9402808,61.2162733 76.1661713,60.9449689 L75.4171354,60.7754037 C74.6180652,61.758882 73.2256313,62.9006211 71.4146745,63.6806211 C71.5673651,63.7936646 71.7201539,64.0423602 71.7994153,64.2232298 C72.5452403,63.8614907 73.2175706,63.4771429 73.8192242,63.058882 C74.1700192,63.5562733 74.633825,64.0084472 75.1851821,64.3814907 C73.6284586,65.0032298 71.9189789,65.4214907 70.3958736,65.6362733 C70.4779529,65.8058385 70.5431904,66.1336646 70.5574764,66.3484472 Z M76.0553549,64.0197516 C75.362677,63.6240994 74.8281945,63.1380124 74.4603938,62.572795 L74.6270429,62.4484472 L78.628782,62.4484472 C77.914216,63.0475776 77.0243834,63.578882 76.0553549,64.0197516 Z M71.397437,71.0962733 L71.4904277,70.7232298 L77.2330364,70.7232298 L77.1456815,71.0736646 L77.9369859,71.0736646 L79.1515004,66.2014907 L71.8488917,66.2014907 L70.6287414,71.0962733 L71.397437,71.0962733 Z M74.6537455,68.1006211 L72.1441803,68.1006211 L72.4513313,66.8684472 L74.9608965,66.8684472 L74.6537455,68.1006211 Z M77.886789,68.1006211 L75.4111368,68.1006211 L75.7182878,66.8684472 L78.19394,66.8684472 L77.886789,68.1006211 Z M77.3964746,70.0675776 L74.9208224,70.0675776 L75.2561524,68.7223602 L77.7318045,68.7223602 L77.3964746,70.0675776 Z M74.1634311,70.0675776 L71.6538659,70.0675776 L71.9891958,68.7223602 L74.4987611,68.7223602 L74.1634311,70.0675776 Z M100.027708,71.0849689 L100.799813,67.9875776 L102.518074,67.9875776 L102.405358,68.4397516 L103.117532,68.4397516 L104.571567,62.6067081 L102.141133,62.6067081 L102.589179,60.8093168 L101.854396,60.8093168 L101.40635,62.6067081 L99.032437,62.6067081 L97.5586758,68.518882 L98.248241,68.518882 L98.3806823,67.9875776 L100.06503,67.9875776 L99.2929257,71.0849689 L100.027708,71.0849689 Z M97.0344181,62.6406211 L97.732175,62.2449689 C97.6160189,61.8493168 97.3244979,61.2501863 97.0246216,60.8206211 L96.3635629,61.1597516 C96.6351947,61.6119255 96.9295663,62.2449689 97.0344181,62.6406211 Z M94.971847,71.0962733 L96.2060868,66.1449689 C96.5229688,66.6423602 96.9134437,67.2980124 97.0776024,67.6371429 L97.6706385,67.0267081 C97.5093632,66.7667081 96.8785153,65.8962733 96.5475438,65.4554037 C97.2902561,64.6980124 97.9820497,63.872795 98.5381584,63.0023602 L98.224258,62.7197516 L98.0801521,62.7536646 L94.7792826,62.7536646 L94.6073907,63.4432298 L97.5352168,63.4432298 C96.4877784,64.878882 94.872272,66.2806211 93.482394,67.0493168 C93.572927,67.1849689 93.6495016,67.5580124 93.6553011,67.7614907 C94.225925,67.4223602 94.8332144,66.9814907 95.4319846,66.4840994 L94.2822818,71.0962733 L94.971847,71.0962733 Z M100.823045,64.9467081 L99.1386971,64.9467081 L99.5501104,63.2962733 L101.234458,63.2962733 L100.823045,64.9467081 Z M103.276088,64.9467081 L101.557828,64.9467081 L101.969241,63.2962733 L103.687502,63.2962733 L103.276088,64.9467081 Z M102.689965,67.2980124 L100.971705,67.2980124 L101.388754,65.6249689 L103.107014,65.6249689 L102.689965,67.2980124 Z M100.236922,67.2980124 L98.5525741,67.2980124 L98.9696232,65.6249689 L100.653971,65.6249689 L100.236922,67.2980124 Z M127.005483,64.3249689 L127.755044,61.3180124 L124.126348,61.3180124 L123.376787,64.3249689 L127.005483,64.3249689 Z M117.811474,71.0962733 L117.896011,70.7571429 L119.896881,70.7571429 L119.826433,71.0397516 L120.549912,71.0397516 L121.395281,67.6484472 L118.942238,67.6484472 C119.786919,67.2075776 120.521341,66.7101863 121.151173,66.178882 L123.310304,66.178882 C123.692227,66.732795 124.277595,67.2414907 124.944847,67.6484472 L122.491803,67.6484472 L121.632344,71.0962733 L122.333213,71.0962733 L122.41775,70.7571429 L124.542968,70.7571429 L124.47252,71.0397516 L125.195999,71.0397516 L125.917381,68.1458385 C126.132229,68.2362733 126.338591,68.3154037 126.559074,68.3832298 C126.717204,68.2023602 126.977008,67.9310559 127.183206,67.7840994 C126.046906,67.4901863 124.916045,66.9023602 124.23726,66.178882 L127.379869,66.178882 L127.546125,65.5119255 L125.579169,65.5119255 L125.923738,65.2180124 C125.62396,64.9240994 124.996323,64.5849689 124.470524,64.3814907 L123.959305,64.7997516 C124.400306,64.9806211 124.897893,65.2519255 125.206125,65.5119255 L121.882647,65.5119255 C122.258246,65.138882 122.608386,64.7319255 122.896369,64.3475776 L122.161488,64.2119255 L122.127608,64.2571429 L122.860261,61.3180124 L119.344609,61.3180124 L118.595048,64.3249689 L122.076787,64.3249689 C121.788805,64.7093168 121.424542,65.1275776 120.989603,65.5119255 L117.485256,65.5119255 L117.319,66.178882 L120.156391,66.178882 C119.227108,66.8684472 118.051914,67.5014907 116.670293,67.9649689 C116.786253,68.0893168 116.924919,68.3493168 116.936355,68.5301863 C117.258447,68.4171429 117.549444,68.292795 117.851745,68.1684472 L117.121909,71.0962733 L117.811474,71.0962733 Z M126.445443,63.6693168 L124.229791,63.6693168 L124.652475,61.9736646 L126.868128,61.9736646 L126.445443,63.6693168 Z M121.55066,63.6693168 L119.436747,63.6693168 L119.859432,61.9736646 L121.973345,61.9736646 L121.55066,63.6693168 Z M124.709224,70.0901863 L122.584006,70.0901863 L123.026417,68.3154037 L125.151634,68.3154037 L124.709224,70.0901863 Z M120.063137,70.0901863 L118.062267,70.0901863 L118.504677,68.3154037 L120.505547,68.3154037 L120.063137,70.0901863 Z" id="销售必备神器" fill="#73737B" fill-rule="nonzero"></path>
                </g>
            </g>
        </g>
    </g>
</svg>