<?xml version="1.0" encoding="UTF-8"?>
<svg width="22px" height="22px" viewBox="0 0 22 22" version="1.1" xmlns="http://www.w3.org/2000/svg" xmlns:xlink="http://www.w3.org/1999/xlink">
    <!-- Generator: Sketch 63.1 (92452) - https://sketch.com -->
    <title>edit_company</title>
    <desc>Created with Sketch.</desc>
    <g id="伙办" stroke="none" stroke-width="1" fill="none" fill-rule="evenodd">
        <g id="15伙办-备注联系人信息" transform="translate(-32.000000, -225.000000)">
            <g id="企业名" transform="translate(15.000000, 206.000000)">
                <g id="icon_edit_company" transform="translate(12.000000, 14.000000)">
                    <g transform="translate(5.000000, 5.000000)">
                        <rect id="矩形" fill="#D8D8D8" opacity="0" x="0" y="0" width="22" height="22"></rect>
                        <path d="M9.27239312,3.65112531 C10.8797778,3.24927913 12.5085813,4.22656121 12.9104275,5.83394594 C12.969918,6.07190775 13,6.31626739 13,6.56155281 L13,6.56155281 L13.0002644,7.61759629 C13.3012608,7.61740165 13.6068821,7.68540706 13.8944272,7.82917961 L13.8944272,7.82917961 L17.3416408,9.5527864 C18.3579929,10.0609624 19,11.0997518 19,12.236068 L19,12.236068 L19,16 C19,17.6568542 17.6568542,19 16,19 L16,19 L6,19 C4.34314575,19 3,17.6568542 3,16 L3,16 L3,7.56155281 C3,6.18494989 3.93689212,4.98500056 5.27239312,4.65112531 L5.27239312,4.65112531 Z M10.9701425,6.31901719 C10.8361938,5.78322228 10.2932593,5.45746159 9.75746437,5.59141031 L9.75746437,5.59141031 L5.75746437,6.59141031 C5.31229737,6.70270206 5,7.10268517 5,7.56155281 L5,7.56155281 L5,16 C5,16.5522847 5.44771525,17 6,17 L6,17 L11,17 L11,6.56155281 C11,6.52067191 10.9974932,6.47986815 10.9925076,6.43936955 L10.9925076,6.43936955 Z M13,9.61803399 L13,17 L16,17 C16.5128358,17 16.9355072,16.6139598 16.9932723,16.1166211 L16.9932723,16.1166211 L17,16 L17,12.236068 C17,11.8572959 16.7859976,11.5110328 16.4472136,11.3416408 L16.4472136,11.3416408 L13,9.61803399 Z M9,13 C9.55228475,13 10,13.4477153 10,14 C10,14.5522847 9.55228475,15 9,15 L7,15 C6.44771525,15 6,14.5522847 6,14 C6,13.4477153 6.44771525,13 7,13 L9,13 Z M15,13 C15.5522847,13 16,13.4477153 16,14 C16,14.5522847 15.5522847,15 15,15 C14.4477153,15 14,14.5522847 14,14 C14,13.4477153 14.4477153,13 15,13 Z M9,9 C9.55228475,9 10,9.44771525 10,10 C10,10.5522847 9.55228475,11 9,11 L7,11 C6.44771525,11 6,10.5522847 6,10 C6,9.44771525 6.44771525,9 7,9 L9,9 Z" id="形状结合" fill="#0D0D14" fill-rule="nonzero"></path>
                    </g>
                </g>
            </g>
        </g>
    </g>
</svg>