<?xml version="1.0" encoding="UTF-8"?>
<svg width="12px" height="12px" viewBox="0 0 12 12" version="1.1" xmlns="http://www.w3.org/2000/svg" xmlns:xlink="http://www.w3.org/1999/xlink">
    <!-- Generator: Sketch 63.1 (92452) - https://sketch.com -->
    <title>home_tell</title>
    <desc>Created with Sketch.</desc>
    <g id="伙办" stroke="none" stroke-width="1" fill="none" fill-rule="evenodd">
        <g id="6伙办" transform="translate(-31.000000, -266.000000)">
            <g id="企业1" transform="translate(15.000000, 152.000000)">
                <g id="信息">
                    <g transform="translate(16.000000, 84.000000)">
                        <g id="icon/tell" transform="translate(0.000000, 30.000000)">
                            <g id="home_tell">
                                <rect id="矩形" x="0" y="0" width="12" height="12"></rect>
                                <path d="M9.99139632,7.86659702 C9.04776441,7.28520167 8.90241557,7.21252725 8.57538069,7.24886446 C8.24834581,7.28520167 8.13933418,7.35787609 7.668086,8.04714753 C7.59541158,8.11982195 6.97767902,9.09979106 4.69070591,6.92182958 C3.02032982,5.17877907 3.52905075,4.56218205 3.81974842,4.16247275 C4.1104461,3.90811228 4.40114377,3.76276344 4.47381819,3.32785247 C4.47381819,3.10982922 4.43748098,2.6737827 3.747074,1.7301508 C3.27469028,1.04087936 3.20201586,1.00454215 2.87611652,1.00454215 C2.58541884,0.968204942 2.07783345,1.14989099 1.56911252,1.54960029 C1.06039159,1.87663517 0.915042754,2.27634448 0.843503873,2.74759266 C0.770829455,3.32898801 0.661817827,5.32526344 3.16681419,8.08462028 C5.67181056,10.8439771 8.90355111,11.4617097 10.0652063,10.6622911 C10.53759,10.298919 10.9361638,9.53697311 10.972501,9.06458939 C11.0451754,8.7012173 10.8998265,8.44685683 9.99139632,7.86659702 Z" id="路径" fill="#99999D" transform="translate(5.902448, 5.992896) scale(-1, 1) translate(-5.902448, -5.992896) "></path>
                            </g>
                        </g>
                    </g>
                </g>
            </g>
        </g>
    </g>
</svg>