<?xml version="1.0" encoding="UTF-8"?>
<svg width="12px" height="12px" viewBox="0 0 12 12" version="1.1" xmlns="http://www.w3.org/2000/svg" xmlns:xlink="http://www.w3.org/1999/xlink">
    <!-- Generator: Sketch 63.1 (92452) - https://sketch.com -->
    <title>home_name</title>
    <desc>Created with Sketch.</desc>
    <g id="伙办" stroke="none" stroke-width="1" fill="none" fill-rule="evenodd">
        <g id="6伙办" transform="translate(-31.000000, -242.000000)">
            <g id="企业1" transform="translate(15.000000, 152.000000)">
                <g id="信息">
                    <g transform="translate(16.000000, 84.000000)">
                        <g id="icon/name" transform="translate(0.000000, 6.000000)">
                            <g id="home_name">
                                <rect id="矩形" x="0" y="0" width="12" height="12"></rect>
                                <path d="M8,7 C9.1045695,7 10,7.8954305 10,9 L10,10 C10,10.5522847 9.55228475,11 9,11 L3,11 C2.44771525,11 2,10.5522847 2,10 L2,9 C2,7.8954305 2.8954305,7 4,7 L8,7 Z M7.47368421,1 C7.76436039,1 8,1.23563961 8,1.52631579 L8,4 C8,5.1045695 7.1045695,6 6,6 C4.8954305,6 4,5.1045695 4,4 L4,3 C4,1.8954305 4.8954305,1 6,1 L7.47368421,1 Z" id="形状结合" fill="#99999D"></path>
                            </g>
                        </g>
                    </g>
                </g>
            </g>
        </g>
    </g>
</svg>