<?xml version="1.0" encoding="UTF-8"?>
<svg width="12px" height="12px" viewBox="0 0 12 12" version="1.1" xmlns="http://www.w3.org/2000/svg" xmlns:xlink="http://www.w3.org/1999/xlink">
    <!-- Generator: Sketch 63.1 (92452) - https://sketch.com -->
    <title>home_address</title>
    <desc>Created with Sketch.</desc>
    <g id="伙办" stroke="none" stroke-width="1" fill="none" fill-rule="evenodd">
        <g id="6伙办" transform="translate(-31.000000, -290.000000)">
            <g id="企业1" transform="translate(15.000000, 152.000000)">
                <g id="信息">
                    <g transform="translate(16.000000, 84.000000)">
                        <g id="icon/address" transform="translate(0.000000, 54.000000)">
                            <g id="home_address">
                                <rect id="矩形" x="0" y="0" width="12" height="12"></rect>
                                <path d="M6.27302871,6.6969931 C7.0599564,6.6969931 7.6969931,6.05882086 7.6969931,5.27302871 C7.6969931,4.48723656 7.05882086,3.84906432 6.27302871,3.84906432 C5.48723656,3.84906432 4.84906432,4.48610102 4.84906432,5.27302871 C4.84906432,6.0599564 5.48610102,6.6969931 6.27302871,6.6969931 L6.27302871,6.6969931 Z M6.27302871,10.9688863 C3.42509993,8.74436773 2,6.84574855 2,5.27302871 C2,2.91338118 3.91338118,1 6.27302871,1 C8.63267624,1 10.5460574,2.91338118 10.5460574,5.27302871 C10.5460574,6.84574855 9.12095749,8.74436773 6.27302871,10.9688863 Z" id="形状" fill="#99999D"></path>
                            </g>
                        </g>
                    </g>
                </g>
            </g>
        </g>
    </g>
</svg>