<?xml version="1.0" encoding="UTF-8"?>
<svg width="14px" height="13px" viewBox="0 0 14 13" version="1.1" xmlns="http://www.w3.org/2000/svg" xmlns:xlink="http://www.w3.org/1999/xlink">
    <!-- Generator: Sketch 63.1 (92452) - https://sketch.com -->
    <title>icon_toast_star2</title>
    <desc>Created with Sketch.</desc>
    <defs>
        <linearGradient x1="0%" y1="35.1444305%" x2="100%" y2="77.5899724%" id="linearGradient-1">
            <stop stop-color="#FFA855" offset="0%"></stop>
            <stop stop-color="#FF6927" offset="100%"></stop>
        </linearGradient>
    </defs>
    <g id="伙办" stroke="none" stroke-width="1" fill="none" fill-rule="evenodd">
        <g id="17伙币-扫描名片" transform="translate(-150.000000, -102.000000)" fill="url(#linearGradient-1)">
            <g id="icon_toast_star2" transform="translate(151.000000, 102.000000)">
                <path d="M6.15828389,9.48803177 L3.00685668,10.633903 C2.74733719,10.7282653 2.46045931,10.5943789 2.36609701,10.3348594 C2.32596583,10.2244888 2.32596583,10.1035139 2.36609701,9.99314332 L3.51196823,6.84171611 C3.5922306,6.62097489 3.5922306,6.37902511 3.51196823,6.15828389 L2.36609701,3.00685668 C2.27173471,2.74733719 2.40562107,2.46045931 2.66514057,2.36609701 C2.77551118,2.32596583 2.89648607,2.32596583 3.00685668,2.36609701 L6.15828389,3.51196823 C6.37902511,3.5922306 6.62097489,3.5922306 6.84171611,3.51196823 L9.99314332,2.36609701 C10.2526628,2.27173471 10.5395407,2.40562107 10.633903,2.66514057 C10.6740342,2.77551118 10.6740342,2.89648607 10.633903,3.00685668 L9.48803177,6.15828389 C9.4077694,6.37902511 9.4077694,6.62097489 9.48803177,6.84171611 L10.633903,9.99314332 C10.7282653,10.2526628 10.5943789,10.5395407 10.3348594,10.633903 C10.2244888,10.6740342 10.1035139,10.6740342 9.99314332,10.633903 L6.84171611,9.48803177 C6.62097489,9.4077694 6.37902511,9.4077694 6.15828389,9.48803177 Z" id="星形备份-3" transform="translate(6.500000, 6.500000) rotate(-330.000000) translate(-6.500000, -6.500000) "></path>
            </g>
        </g>
    </g>
</svg>