<?xml version="1.0" encoding="UTF-8"?>
<svg width="22px" height="22px" viewBox="0 0 22 22" version="1.1" xmlns="http://www.w3.org/2000/svg" xmlns:xlink="http://www.w3.org/1999/xlink">
    <!-- Generator: Sketch 63.1 (92452) - https://sketch.com -->
    <title>icon_check box_s</title>
    <desc>Created with Sketch.</desc>
    <g id="伙办" stroke="none" stroke-width="1" fill="none" fill-rule="evenodd">
        <g id="20伙币-分享人脉" transform="translate(-20.000000, -511.000000)">
            <g id="list" transform="translate(20.000000, 144.000000)">
                <g id="icon/check-box/selected备份-2" transform="translate(0.000000, 367.000000)">
                    <g id="icon_check-box_s">
                        <rect id="icon/check-box" fill="#F02E19" x="0" y="0" width="22" height="22" rx="11"></rect>
                        <path d="M13.5,3.79289322 C14.0522847,3.79289322 14.5,4.24060847 14.5,4.79289322 L14.4998557,13.7757317 C14.4999518,13.7814407 14.5,13.7871613 14.5,13.7928932 C14.5,14.345178 14.0522847,14.7928932 13.5,14.7928932 L8.5,14.7928932 C7.94771525,14.7928932 7.5,14.345178 7.5,13.7928932 C7.5,13.2406085 7.94771525,12.7928932 8.5,12.7928932 L12.499,12.7928932 L12.5,4.79289322 C12.5,4.24060847 12.9477153,3.79289322 13.5,3.79289322 Z" id="形状结合" fill="#FFFFFF" transform="translate(11.000000, 9.292893) rotate(-315.000000) translate(-11.000000, -9.292893) "></path>
                    </g>
                </g>
            </g>
        </g>
    </g>
</svg>