<?xml version="1.0" encoding="UTF-8"?>
<svg width="16px" height="16px" viewBox="0 0 16 16" version="1.1" xmlns="http://www.w3.org/2000/svg" xmlns:xlink="http://www.w3.org/1999/xlink">
    <!-- Generator: Sketch 63.1 (92452) - https://sketch.com -->
    <title>icon_toast_success</title>
    <desc>Created with Sketch.</desc>
    <g id="伙办" stroke="none" stroke-width="1" fill="none" fill-rule="evenodd">
        <g id="12伙办-注册成功" transform="translate(-100.000000, -103.000000)" fill="#FFFFFF">
            <g id="toast" transform="translate(84.000000, 88.000000)">
                <g id="icon/toast/success" transform="translate(16.000000, 15.000000)">
                    <g id="icon_toast_success">
                        <path d="M8,0 C12.418278,0 16,3.581722 16,8 C16,12.418278 12.418278,16 8,16 C3.581722,16 0,12.418278 0,8 C0,3.581722 3.581722,0 8,0 Z M11.7426407,5.37867966 C11.3521164,4.98815536 10.7189514,4.98815536 10.3284271,5.37867966 L10.3284271,5.37867966 L6.79218611,8.91350646 L5.37867966,7.5 C4.98815536,7.10947571 4.35499039,7.10947571 3.96446609,7.5 C3.5739418,7.89052429 3.5739418,8.52368927 3.96446609,8.91421356 L3.96446609,8.91421356 L6.08578644,11.0355339 C6.47631073,11.4260582 7.10947571,11.4260582 7.5,11.0355339 L7.5,11.0355339 L7.51213562,11.0231907 L11.7426407,6.79289322 C12.133165,6.40236893 12.133165,5.76920395 11.7426407,5.37867966 Z" id="形状结合"></path>
                    </g>
                </g>
            </g>
        </g>
    </g>
</svg>