<?xml version="1.0" encoding="UTF-8"?>
<svg width="38px" height="38px" viewBox="0 0 38 38" version="1.1" xmlns="http://www.w3.org/2000/svg" xmlns:xlink="http://www.w3.org/1999/xlink">
    <!-- Generator: Sketch 63.1 (92452) - https://sketch.com -->
    <title>icon_huobi_information</title>
    <desc>Created with Sketch.</desc>
    <defs>
        <linearGradient x1="0%" y1="0%" x2="100%" y2="100%" id="linearGradient-1">
            <stop stop-color="#FFCF6F" offset="0%"></stop>
            <stop stop-color="#FF9E00" offset="100%"></stop>
        </linearGradient>
    </defs>
    <g id="伙办" stroke="none" stroke-width="1" fill="none" fill-rule="evenodd">
        <g id="16伙币" transform="translate(-32.000000, -356.000000)">
            <g id="编组-2" transform="translate(16.000000, 336.000000)">
                <g id="icon_huobi_information" transform="translate(16.000000, 20.000000)">
                    <rect id="矩形" fill="url(#linearGradient-1)" x="0" y="0" width="38" height="38" rx="8"></rect>
                    <g transform="translate(7.000000, 7.000000)">
                        <rect id="矩形" x="0" y="0" width="24" height="24"></rect>
                        <rect id="矩形" fill="#FFFFFF" transform="translate(15.405472, 8.525742) rotate(-232.000000) translate(-15.405472, -8.525742) " x="7.90547182" y="7.52574213" width="15" height="2" rx="1"></rect>
                        <path d="M20,11.7272727 L20,18 C20,19.6568542 18.6568542,21 17,21 L6,21 C4.34314575,21 3,19.6568542 3,18 L3,7 C3,5.34314575 4.34314575,4 6,4 L10.7272727,4 L10.7272727,4" id="路径" stroke="#FFFFFF" stroke-width="2" stroke-linecap="round" stroke-linejoin="round"></path>
                    </g>
                </g>
            </g>
        </g>
    </g>
</svg>