<?xml version="1.0" encoding="UTF-8"?>
<svg width="32px" height="32px" viewBox="0 0 32 32" version="1.1" xmlns="http://www.w3.org/2000/svg" xmlns:xlink="http://www.w3.org/1999/xlink">
    <!-- Generator: Sketch 63.1 (92452) - https://sketch.com -->
    <title>icon_camera_light</title>
    <desc>Created with Sketch.</desc>
    <g id="伙办" stroke="none" stroke-width="1" fill="none" fill-rule="evenodd">
        <g id="17伙币-扫描名片" transform="translate(-190.000000, -740.000000)">
            <g id="icon_camera_light" transform="translate(190.000000, 740.000000)">
                <rect id="矩形" fill="#D8D8D8" opacity="0" x="0" y="0" width="32" height="32"></rect>
                <path d="M10,9 L22,9 C23.1045695,9 24,9.8954305 24,11 L24,14.4499053 C24,14.8878307 23.8562652,15.313652 23.5908634,15.6619917 L20.4091366,19.8380083 C20.1437348,20.186348 20,20.6121693 20,21.0500947 L20,28 C20,29.1045695 19.1045695,30 18,30 L14,30 C12.8954305,30 12,29.1045695 12,28 L12,21.0500947 C12,20.6121693 11.8562652,20.186348 11.5908634,19.8380083 L8.40913656,15.6619917 C8.14373482,15.313652 8,14.8878307 8,14.4499053 L8,11 C8,9.8954305 8.8954305,9 10,9 Z" id="矩形" stroke="#FFFFFF" stroke-width="2"></path>
                <rect id="矩形" fill="#FFFFFF" x="15" y="21" width="2" height="4" rx="1"></rect>
                <g id="编组" transform="translate(7.000000, 0.000000)" fill="#FFFFFF">
                    <rect id="矩形备份" x="8" y="0" width="2" height="5" rx="1"></rect>
                    <rect id="矩形备份-2" transform="translate(16.116025, 3.665064) rotate(-330.000000) translate(-16.116025, -3.665064) " x="15.1160254" y="1.16506351" width="2" height="5" rx="1"></rect>
                    <rect id="矩形备份-3" transform="translate(2.116025, 3.665064) scale(-1, 1) rotate(-330.000000) translate(-2.116025, -3.665064) " x="1.1160254" y="1.16506351" width="2" height="5" rx="1"></rect>
                </g>
            </g>
        </g>
    </g>
</svg>