<?xml version="1.0" encoding="UTF-8"?>
<svg width="20px" height="19px" viewBox="0 0 20 19" version="1.1" xmlns="http://www.w3.org/2000/svg" xmlns:xlink="http://www.w3.org/1999/xlink">
    <!-- Generator: Sketch 63.1 (92452) - https://sketch.com -->
    <title>icon_toast_star4</title>
    <desc>Created with Sketch.</desc>
    <defs>
        <linearGradient x1="0%" y1="35.1444305%" x2="100%" y2="77.5899724%" id="linearGradient-1">
            <stop stop-color="#FFA855" offset="0%"></stop>
            <stop stop-color="#FF6927" offset="100%"></stop>
        </linearGradient>
    </defs>
    <g id="伙办" stroke="none" stroke-width="1" fill="none" fill-rule="evenodd">
        <g id="17伙币-扫描名片" transform="translate(-230.000000, -159.000000)" fill="url(#linearGradient-1)">
            <g id="icon_toast_star4" transform="translate(231.000000, 159.000000)">
                <path d="M8.5180168,12.8900242 L4.56068752,15.1203904 C4.32012214,15.255974 4.01519316,15.1708695 3.87960957,14.9303041 C3.79371911,14.777909 3.79371911,14.5917076 3.87960957,14.4393125 L6.10997577,10.4819832 C6.45353762,9.87240287 6.45353762,9.12759713 6.10997577,8.5180168 L3.87960957,4.56068752 C3.74402598,4.32012214 3.82913054,4.01519316 4.06969592,3.87960957 C4.22209101,3.79371911 4.40829244,3.79371911 4.56068752,3.87960957 L8.5180168,6.10997577 C9.12759713,6.45353762 9.87240287,6.45353762 10.4819832,6.10997577 L14.4393125,3.87960957 C14.6798779,3.74402598 14.9848068,3.82913054 15.1203904,4.06969592 C15.2062809,4.22209101 15.2062809,4.40829244 15.1203904,4.56068752 L12.8900242,8.5180168 C12.5464624,9.12759713 12.5464624,9.87240287 12.8900242,10.4819832 L15.1203904,14.4393125 C15.255974,14.6798779 15.1708695,14.9848068 14.9303041,15.1203904 C14.777909,15.2062809 14.5917076,15.2062809 14.4393125,15.1203904 L10.4819832,12.8900242 C9.87240287,12.5464624 9.12759713,12.5464624 8.5180168,12.8900242 Z" id="星形备份-6" transform="translate(9.500000, 9.500000) rotate(-330.000000) translate(-9.500000, -9.500000) "></path>
            </g>
        </g>
    </g>
</svg>