<?xml version="1.0" encoding="UTF-8"?>
<svg width="40px" height="40px" viewBox="0 0 40 40" version="1.1" xmlns="http://www.w3.org/2000/svg" xmlns:xlink="http://www.w3.org/1999/xlink">
    <!-- Generator: Sketch 63.1 (92452) - https://sketch.com -->
    <title>icon_wechat</title>
    <desc>Created with Sketch.</desc>
    <defs>
        <linearGradient x1="50.040753%" y1="100%" x2="50.040753%" y2="0.0375515009%" id="linearGradient-1">
            <stop stop-color="#E3E6E6" offset="0%"></stop>
            <stop stop-color="#FCFCFC" offset="100%"></stop>
        </linearGradient>
        <linearGradient x1="50.0506586%" y1="100.094629%" x2="50.0506586%" y2="0.0400436872%" id="linearGradient-2">
            <stop stop-color="#70CB2D" offset="0%"></stop>
            <stop stop-color="#9CF166" offset="100%"></stop>
        </linearGradient>
    </defs>
    <g id="伙办" stroke="none" stroke-width="1" fill="none" fill-rule="evenodd">
        <g id="19伙币-邀请销售-确定" transform="translate(-54.000000, -713.000000)">
            <g id="弹窗" transform="translate(16.000000, 683.000000)">
                <g id="icon_wechat" transform="translate(28.000000, 20.000000)">
                    <rect id="矩形" x="0" y="0" width="60" height="60"></rect>
                    <g id="微信备份" transform="translate(13.000000, 15.000000)">
                        <path d="M34,19.6838205 C33.7049327,14.2694983 29.1741036,10.0618822 23.7527778,10.1675983 C20.1836106,9.90133069 16.7655395,11.6546393 14.89962,14.7088491 C13.0337004,17.7630588 13.0337004,21.6045822 14.89962,24.6587919 C16.7655395,27.7130017 20.1836106,29.4663103 23.7527778,29.2000427 C24.9828215,29.1398255 26.1996139,28.9181864 27.3718889,28.5408205 L30.6812222,30.5128205 L29.7745556,27.2374872 C32.2450766,25.4802948 33.7961699,22.7067709 34,19.6819316 L34,19.6819316 L34,19.6838205 Z" id="微信-2" fill="url(#linearGradient-1)"></path>
                        <path d="M20.6002222,18.214265 C20.004968,18.2664619 19.4387308,17.9478502 19.1743785,17.4119678 C18.9100262,16.8760853 19.0017951,16.2328774 19.405462,15.7923037 C19.8091289,15.3517301 20.441875,15.2041818 20.9987818,15.4207619 C21.5556886,15.637342 21.9224975,16.1736155 21.9224444,16.7711538 C21.9523542,17.5335114 21.3622815,18.1775335 20.6002222,18.214265 L20.6002222,18.214265 L20.6002222,18.214265 Z M27.2321111,18.2954872 C26.6368569,18.3476841 26.0706197,18.0290724 25.8062674,17.49319 C25.5419151,16.9573076 25.633684,16.3140996 26.0373509,15.873526 C26.4410178,15.4329523 27.0737639,15.285404 27.6306706,15.5019841 C28.1875774,15.7185642 28.5543864,16.2548377 28.5543333,16.8523761 C28.5842431,17.6147336 27.9941704,18.2587558 27.2321111,18.2954872 L27.2321111,18.2954872 L27.2321111,18.2954872 Z" id="微信_拷贝" fill="#6D6F6F"></path>
                        <path d="M23.0746667,9.42148718 C23.4631083,9.42352125 23.8510592,9.44938465 24.2363333,9.49893162 C22.8450621,3.95181754 17.7807306,0.120561161 12.0643333,0.290598291 C8.98581262,0.165403583 5.98392999,1.26992518 3.7207135,3.36057451 C1.45749701,5.45122385 0.118851977,8.35627062 0,11.4350427 C0.0743696691,14.9950527 1.87425744,18.2968429 4.82611111,20.288265 L3.621,24.2341538 L7.837,21.9353761 C9.21720839,22.3113547 10.6351274,22.5318354 12.0643333,22.5927094 C12.4421111,22.5927094 12.8198889,22.5719316 13.1976667,22.5417094 C12.9511585,21.646253 12.8241317,20.7221335 12.8198889,19.7933761 C12.7931977,17.053922 13.8613478,14.4171889 15.787144,12.4686946 C17.7129401,10.5202003 20.3369768,9.42122907 23.0765556,9.41582051 L23.0765556,9.41582051 L23.0746667,9.42148718 Z" id="微信_拷贝_4" fill="url(#linearGradient-2)"></path>
                        <path d="M16.5032222,5.60026496 C17.3385609,5.53099823 18.1308725,5.98117563 18.4989869,6.73422308 C18.8671012,7.48727053 18.7356523,8.38901244 18.1678783,9.00563337 C17.6001044,9.62225429 16.7122489,9.82751 15.9314467,9.52265483 C15.1506446,9.21779966 14.6367538,8.46524831 14.637,7.62704274 C14.5943803,6.55265068 15.4289694,5.6462599 16.5032222,5.60026496 L16.5032222,5.60026496 L16.5032222,5.60026496 Z M8.06177778,9.69537607 C7.22634585,9.76543435 6.43349117,9.31581318 6.0647663,8.5628878 C5.69604142,7.80996241 5.82696742,6.9079446 6.3945376,6.29092049 C6.96210778,5.67389638 7.85007421,5.46824288 8.63111284,5.77292848 C9.41215148,6.07761408 9.92629246,6.83023403 9.92611111,7.66859829 C9.96874786,8.74228447 9.13528167,9.64837284 8.06177778,9.69537607 L8.06177778,9.69537607 L8.06177778,9.69537607 Z" id="微信_拷贝_2" fill="#116F20"></path>
                    </g>
                </g>
            </g>
        </g>
    </g>
</svg>