<?xml version="1.0" encoding="UTF-8"?>
<svg width="18px" height="17px" viewBox="0 0 18 17" version="1.1" xmlns="http://www.w3.org/2000/svg" xmlns:xlink="http://www.w3.org/1999/xlink">
    <!-- Generator: Sketch 63.1 (92452) - https://sketch.com -->
    <title>icon_toast_star1</title>
    <desc>Created with Sketch.</desc>
    <defs>
        <linearGradient x1="-2.84217094e-12%" y1="17.5258117%" x2="100%" y2="76.5872192%" id="linearGradient-1">
            <stop stop-color="#FFE9A2" offset="0%"></stop>
            <stop stop-color="#FFC733" offset="100%"></stop>
        </linearGradient>
    </defs>
    <g id="伙办" stroke="none" stroke-width="1" fill="none" fill-rule="evenodd">
        <g id="17伙币-扫描名片" transform="translate(-124.000000, -127.000000)" fill="url(#linearGradient-1)">
            <g id="icon_toast_star1" transform="translate(125.000000, 127.000000)">
                <path d="M7.5180168,11.8900242 L3.56068752,14.1203904 C3.32012214,14.255974 3.01519316,14.1708695 2.87960957,13.9303041 C2.79371911,13.777909 2.79371911,13.5917076 2.87960957,13.4393125 L5.10997577,9.4819832 C5.45353762,8.87240287 5.45353762,8.12759713 5.10997577,7.5180168 L2.87960957,3.56068752 C2.74402598,3.32012214 2.82913054,3.01519316 3.06969592,2.87960957 C3.22209101,2.79371911 3.40829244,2.79371911 3.56068752,2.87960957 L7.5180168,5.10997577 C8.12759713,5.45353762 8.87240287,5.45353762 9.4819832,5.10997577 L13.4393125,2.87960957 C13.6798779,2.74402598 13.9848068,2.82913054 14.1203904,3.06969592 C14.2062809,3.22209101 14.2062809,3.40829244 14.1203904,3.56068752 L11.8900242,7.5180168 C11.5464624,8.12759713 11.5464624,8.87240287 11.8900242,9.4819832 L14.1203904,13.4393125 C14.255974,13.6798779 14.1708695,13.9848068 13.9303041,14.1203904 C13.777909,14.2062809 13.5917076,14.2062809 13.4393125,14.1203904 L9.4819832,11.8900242 C8.87240287,11.5464624 8.12759713,11.5464624 7.5180168,11.8900242 Z" transform="translate(8.500000, 8.500000) scale(-1, 1) rotate(-285.000000) translate(-8.500000, -8.500000) "></path>
            </g>
        </g>
    </g>
</svg>