<?xml version="1.0" encoding="UTF-8"?>
<svg width="40px" height="40px" viewBox="0 0 40 40" version="1.1" xmlns="http://www.w3.org/2000/svg" xmlns:xlink="http://www.w3.org/1999/xlink">
    <!-- Generator: Sketch 63.1 (92452) - https://sketch.com -->
    <title>icon_pic</title>
    <desc>Created with Sketch.</desc>
    <defs>
        <linearGradient x1="0%" y1="0%" x2="100%" y2="100%" id="linearGradient-1">
            <stop stop-color="#FFCF6F" offset="0%"></stop>
            <stop stop-color="#FF9E00" offset="100%"></stop>
        </linearGradient>
        <path d="M10.2555408,-4.14336123e-16 L21.7444592,4.14336123e-16 C25.3105342,-2.4074122e-16 26.6036791,0.371302445 27.9073828,1.06853082 C29.2110865,1.76575919 30.2342408,2.78891348 30.9314692,4.09261719 C31.6286976,5.39632089 32,6.68946584 32,10.2555408 L32,21.7444592 C32,25.3105342 31.6286976,26.6036791 30.9314692,27.9073828 C30.2342408,29.2110865 29.2110865,30.2342408 27.9073828,30.9314692 C26.6036791,31.6286976 25.3105342,32 21.7444592,32 L10.2555408,32 C6.68946584,32 5.39632089,31.6286976 4.09261719,30.9314692 C2.78891348,30.2342408 1.76575919,29.2110865 1.06853082,27.9073828 C0.371302445,26.6036791 1.60494146e-16,25.3105342 -2.76224082e-16,21.7444592 L2.76224082e-16,10.2555408 C-1.60494146e-16,6.68946584 0.371302445,5.39632089 1.06853082,4.09261719 C1.76575919,2.78891348 2.78891348,1.76575919 4.09261719,1.06853082 C5.39632089,0.371302445 6.68946584,2.4074122e-16 10.2555408,-4.14336123e-16 Z" id="path-2"></path>
    </defs>
    <g id="伙办" stroke="none" stroke-width="1" fill="none" fill-rule="evenodd">
        <g id="19伙币-邀请销售-确定" transform="translate(-320.000000, -713.000000)">
            <g id="弹窗" transform="translate(16.000000, 683.000000)">
                <g id="icon_pic" transform="translate(294.000000, 20.000000)">
                    <rect id="矩形" fill="#EDF2E9" opacity="0" x="0" y="0" width="60" height="60"></rect>
                    <g id="矩形备份-5" transform="translate(14.000000, 14.000000)">
                        <mask id="mask-3" fill="white">
                            <use xlink:href="#path-2"></use>
                        </mask>
                        <use id="蒙版" fill="url(#linearGradient-1)" xlink:href="#path-2"></use>
                        <path d="M2.46808651,18.26 L14.1319135,18.26 C16.7217754,18.26 17.660922,18.5296584 18.6077368,19.0360205 C19.5545516,19.5423826 20.2976174,20.2854484 20.8039795,21.2322632 C21.3103416,22.179078 21.58,23.1182246 21.58,25.7080865 L21.58,37.3719135 C21.58,39.9617754 21.3103416,40.900922 20.8039795,41.8477368 C20.2976174,42.7945516 19.5545516,43.5376174 18.6077368,44.0439795 C17.660922,44.5503416 16.7217754,44.82 14.1319135,44.82 L2.46808651,44.82 C-0.121775433,44.82 -1.06092195,44.5503416 -2.00773677,44.0439795 C-2.95455158,43.5376174 -3.69761739,42.7945516 -4.2039795,41.8477368 C-4.7103416,40.900922 -4.98,39.9617754 -4.98,37.3719135 L-4.98,25.7080865 C-4.98,23.1182246 -4.7103416,22.179078 -4.2039795,21.2322632 C-3.69761739,20.2854484 -2.95455158,19.5423826 -2.00773677,19.0360205 C-1.06092195,18.5296584 -0.121775433,18.26 2.46808651,18.26 Z" fill="#FFF3DE" mask="url(#mask-3)" transform="translate(8.300000, 31.540000) rotate(-30.000000) translate(-8.300000, -31.540000) "></path>
                        <circle id="椭圆形" fill="#FFFCF6" mask="url(#mask-3)" cx="22.41" cy="9.13" r="4.15"></circle>
                    </g>
                </g>
            </g>
        </g>
    </g>
</svg>