<?xml version="1.0" encoding="UTF-8"?>
<svg width="22px" height="22px" viewBox="0 0 22 22" version="1.1" xmlns="http://www.w3.org/2000/svg" xmlns:xlink="http://www.w3.org/1999/xlink">
    <!-- Generator: Sketch 63.1 (92452) - https://sketch.com -->
    <title>icon_my_list_opinion</title>
    <desc>Created with Sketch.</desc>
    <g id="伙办" stroke="none" stroke-width="1" fill="none" fill-rule="evenodd">
        <g id="24我的" transform="translate(-36.000000, -460.000000)">
            <g id="list" transform="translate(16.000000, 296.000000)">
                <g id="List备份-4" transform="translate(0.000000, 140.000000)">
                    <g id="icon/bars/backicon/bars/back备份" transform="translate(15.000000, 19.000000)">
                        <g id="icon_my_list_opinion" transform="translate(5.000000, 5.000000)">
                            <rect id="矩形" fill="#F1F1F1" opacity="0" transform="translate(11.000000, 11.000000) scale(-1, 1) translate(-11.000000, -11.000000) " x="0" y="0" width="22" height="22"></rect>
                            <path d="M11,4 C14.8659932,4 18,7.13400675 18,11 L18,13 C18,15.7614237 15.7614237,18 13,18 L6,18 C4.8954305,18 4,17.1045695 4,16 L4,11 C4,7.13400675 7.13400675,4 11,4 Z" id="矩形备份" stroke="#0D0D14" stroke-width="2" stroke-linecap="round" stroke-linejoin="round" fill-rule="nonzero"></path>
                            <path d="M9,13.2127086 C10.2573451,13.978819 11.5906784,13.978819 13,13.2127086" id="路径-4" stroke="#0D0D14" stroke-width="2" stroke-linecap="round" stroke-linejoin="round" fill-rule="nonzero"></path>
                        </g>
                    </g>
                </g>
            </g>
        </g>
    </g>
</svg>