<?xml version="1.0" encoding="UTF-8"?>
<svg width="40px" height="40px" viewBox="0 0 40 40" version="1.1" xmlns="http://www.w3.org/2000/svg" xmlns:xlink="http://www.w3.org/1999/xlink">
    <!-- Generator: Sketch 63.1 (92452) - https://sketch.com -->
    <title>icon_url</title>
    <desc>Created with Sketch.</desc>
    <defs>
        <linearGradient x1="7.13305898%" y1="0%" x2="92.866941%" y2="100%" id="linearGradient-1">
            <stop stop-color="#3291FF" offset="0%"></stop>
            <stop stop-color="#1750F4" offset="100%"></stop>
        </linearGradient>
    </defs>
    <g id="伙办" stroke="none" stroke-width="1" fill="none" fill-rule="evenodd">
        <g id="19伙币-邀请销售-确定" transform="translate(-231.000000, -713.000000)">
            <g id="弹窗" transform="translate(16.000000, 683.000000)">
                <g id="icon_url" transform="translate(205.000000, 20.000000)">
                    <rect id="矩形" fill="#EDF2E9" opacity="0" x="0" y="0" width="60" height="60"></rect>
                    <g id="编组-2" transform="translate(14.000000, 15.000000)">
                        <path d="M15.3840741,7 L25.6159259,7 C27.8358075,7 28.6407902,7.23113577 29.4523458,7.66516043 C30.2639014,8.09918509 30.9008149,8.73609864 31.3348396,9.5476542 C31.7688642,10.3592098 32,11.1641925 32,13.3840741 L32,25.6159259 C32,27.8358075 31.7688642,28.6407902 31.3348396,29.4523458 C30.9008149,30.2639014 30.2639014,30.9008149 29.4523458,31.3348396 C28.6407902,31.7688642 27.8358075,32 25.6159259,32 L15.3840741,32 C13.1641925,32 12.3592098,31.7688642 11.5476542,31.3348396 C10.7360986,30.9008149 10.0991851,30.2639014 9.66516043,29.4523458 C9.23113577,28.6407902 9,27.8358075 9,25.6159259 L9,13.3840741 C9,11.1641925 9.23113577,10.3592098 9.66516043,9.5476542 C10.0991851,8.73609864 10.7360986,8.09918509 11.5476542,7.66516043 C12.3592098,7.23113577 13.1641925,7 15.3840741,7 Z" id="矩形备份" fill="#C7DBF5"></path>
                        <path d="M6.38407415,-2.57924237e-16 L18.6159259,2.57924237e-16 C20.8358075,-1.49861409e-16 21.6407902,0.231135772 22.4523458,0.665160432 C23.2639014,1.09918509 23.9008149,1.73609864 24.3348396,2.5476542 C24.7688642,3.35920975 25,4.16419249 25,6.38407415 L25,20.6159259 C25,22.8358075 24.7688642,23.6407902 24.3348396,24.4523458 C23.9008149,25.2639014 23.2639014,25.9008149 22.4523458,26.3348396 C21.6407902,26.7688642 20.8358075,27 18.6159259,27 L6.38407415,27 C4.16419249,27 3.35920975,26.7688642 2.5476542,26.3348396 C1.73609864,25.9008149 1.09918509,25.2639014 0.665160432,24.4523458 C0.231135772,23.6407902 3.63355981e-16,22.8358075 -6.25366561e-16,20.6159259 L1.71949491e-16,6.38407415 C-9.99076061e-17,4.16419249 0.231135772,3.35920975 0.665160432,2.5476542 C1.09918509,1.73609864 1.73609864,1.09918509 2.5476542,0.665160432 C3.35920975,0.231135772 4.16419249,1.49861409e-16 6.38407415,-2.57924237e-16 Z" id="矩形" fill="url(#linearGradient-1)"></path>
                        <path d="M12.5,7 C13.3284271,7 14,7.67157288 14,8.5 L14,12 L17.5,12 C18.3284271,12 19,12.6715729 19,13.5 C19,14.3284271 18.3284271,15 17.5,15 L13.999,15 L14,18.5 C14,19.3284271 13.3284271,20 12.5,20 C11.6715729,20 11,19.3284271 11,18.5 L10.999,15 L7.5,15 C6.67157288,15 6,14.3284271 6,13.5 C6,12.6715729 6.67157288,12 7.5,12 L11,12 L11,8.5 C11,7.67157288 11.6715729,7 12.5,7 Z" id="形状结合" fill="#FFFFFF"></path>
                    </g>
                </g>
            </g>
        </g>
    </g>
</svg>