<?xml version="1.0" encoding="UTF-8"?>
<svg width="22px" height="22px" viewBox="0 0 22 22" version="1.1" xmlns="http://www.w3.org/2000/svg" xmlns:xlink="http://www.w3.org/1999/xlink">
    <!-- Generator: Sketch 63.1 (92452) - https://sketch.com -->
    <title>icon_edit_phone</title>
    <desc>Created with Sketch.</desc>
    <g id="伙办" stroke="none" stroke-width="1" fill="none" fill-rule="evenodd">
        <g id="15伙办-备注联系人信息" transform="translate(-32.000000, -365.000000)">
            <g id="企业名备份-2" transform="translate(15.000000, 346.000000)">
                <g id="icon/remove" transform="translate(12.000000, 14.000000)">
                    <g id="icon_edit_phone" transform="translate(5.000000, 5.000000)">
                        <rect id="矩形" fill="#D8D8D8" opacity="0" x="0" y="0" width="22" height="22"></rect>
                        <path d="M7.46576628,4.00526962 C6.96352209,3.97702857 6.13441551,4.19601788 5.30129008,4.84964052 C4.4428557,5.42688476 4.16755022,6.11791124 4.03967159,6.9783032 C3.9441997,7.75636096 3.70328831,10.450012 7.02634654,14.1789491 C8.48782154,15.8189289 10.1445136,16.8765068 11.6544435,17.4512618 C13.7657518,18.2549314 15.5664451,18.0737593 16.527389,17.3983675 C17.2696376,16.8167301 17.8844568,15.6106457 17.9718402,14.832343 C18.0589628,14.3422081 17.9994096,13.9194044 17.5954831,13.4169607 C17.3828487,13.152465 17.0132942,12.832756 16.3551297,12.4046516 C14.8016763,11.4296316 14.5593694,11.4569386 14.0406491,11.515652 C13.4660908,11.5806856 13.1927679,11.5412693 12.068384,12.7355137 C11.6327918,12.5644486 11.0604549,12.1659058 10.2857973,11.4168864 C9.66726466,10.7577767 9.33868373,10.2776109 9.21740001,9.89705316 C9.1367639,9.64403739 9.27951971,9.51265707 9.41808658,9.37148172 C9.85828011,9.00543279 10.1892257,8.64391967 10.31472,7.79739768 C10.31472,7.46280906 10.3313666,6.77921634 9.28492339,5.31540868 C8.29878938,3.85092958 8.06858773,3.99905409 7.46576628,4.00526962 Z" id="路径" stroke="#0D0D14" stroke-width="2" stroke-linecap="round" stroke-linejoin="round" fill-rule="nonzero" transform="translate(11.000000, 11.000000) scale(-1, 1) translate(-11.000000, -11.000000) "></path>
                    </g>
                </g>
            </g>
        </g>
    </g>
</svg>