<?xml version="1.0" encoding="UTF-8"?>
<svg width="34px" height="34px" viewBox="0 0 34 34" version="1.1" xmlns="http://www.w3.org/2000/svg" xmlns:xlink="http://www.w3.org/1999/xlink">
    <!-- Generator: Sketch 63.1 (92452) - https://sketch.com -->
    <title>icon_appicon</title>
    <desc>Created with Sketch.</desc>
    <defs>
        <linearGradient x1="50.0389666%" y1="0.0395903716%" x2="50%" y2="100%" id="linearGradient-1">
            <stop stop-color="#FF674B" offset="0.0791807432%"></stop>
            <stop stop-color="#F02E19" offset="100%"></stop>
        </linearGradient>
    </defs>
    <g id="伙办" stroke="none" stroke-width="1" fill="none" fill-rule="evenodd">
        <g id="36邀请链接-已登录" transform="translate(-20.000000, -101.000000)">
            <g id="input/Default备份" transform="translate(0.000000, 88.000000)">
                <g id="icon_appicon" transform="translate(20.000000, 13.000000)">
                    <rect id="矩形" fill="url(#linearGradient-1)" x="0" y="0" width="34" height="34" rx="8"></rect>
                    <path d="M22.9989507,8.5 C24.0691216,8.5 25.0388557,8.91579772 25.659535,9.64108262 C26.2334592,10.3109117 26.4605551,11.1693875 26.29951,12.0578917 L24.4434092,22.3072934 C24.1190926,24.0973789 22.2988621,25.5 20.2992803,25.5 C19.2293568,25.5 18.2593753,25.0839601 17.638696,24.3586752 C17.0650192,23.6888462 16.8379233,22.8306125 16.998721,21.9421083 C17.1018789,21.3730199 17.657497,20.9937892 18.2368636,21.0947721 C18.8177146,21.1955128 19.2053608,21.7384473 19.1022029,22.3072934 C19.0522319,22.5838462 19.1106139,22.8218946 19.2756171,23.0146581 C19.4898492,23.2645726 19.8626525,23.4079345 20.2992803,23.4079345 C21.2450184,23.4079345 22.1984253,22.7230912 22.33968,21.9421083 L24.1960281,11.6927066 C24.2462465,11.4161538 24.1876171,11.1781054 24.0226139,10.9850997 C23.8086292,10.7354274 23.4355784,10.5920655 22.9989507,10.5920655 C22.0235269,10.5920655 20.9728991,11.2994302 20.8373343,12.0477208 L20.8368395,12.0491738 C20.83585,12.0535328 20.8363447,12.0561966 20.83585,12.0591026 L20.5454245,13.6457692 C20.2710788,15.1454986 18.7410264,16.3204843 17.0618032,16.3204843 L14.4368418,16.3204843 C13.8468378,16.3204843 13.3684027,15.8521368 13.3684027,15.2743305 C13.3684027,14.6967664 13.8468378,14.2284188 14.4368418,14.2284188 L17.0618032,14.2284188 C17.7524914,14.2284188 18.3603068,13.7259259 18.4424374,13.2767094 L18.7328628,11.6900427 L18.7330175,11.6890741 L18.7338524,11.6820513 C19.0517371,9.92732194 20.9652303,8.5 22.9989507,8.5 Z M12.8508813,8.52155271 C13.9215469,8.52155271 14.8920232,8.93783476 15.5127025,9.66311966 C16.0853898,10.3324644 16.3119909,11.1897293 16.1511932,12.0767806 C16.0477879,12.6453846 15.4936541,13.0238889 14.9123084,12.9236325 C14.3317049,12.8224074 13.944306,12.2794729 14.0477113,11.7103846 C14.0974349,11.4357692 14.0395477,11.1989316 13.8752866,11.0068946 C13.661302,10.7569801 13.2880038,10.6138604 12.8508813,10.6138604 C11.9051432,10.6138604 10.9514889,11.2974929 10.8102342,12.0767806 L8.95413349,22.3109259 C8.9041625,22.5857835 8.96229707,22.8226211 9.12680553,23.0149003 C9.34054284,23.2645726 9.71408837,23.4079345 10.1512109,23.4079345 C11.1033809,23.4079345 12.1794889,22.6245299 12.3242069,21.8263533 C12.33336,21.7757407 12.3501819,21.7285185 12.3662616,21.6812963 L12.6020159,20.3392165 C12.8756194,18.8336752 14.4044349,17.6589316 16.0839055,17.6589316 L18.714804,17.6589316 C19.3048081,17.6589316 19.7829958,18.1272792 19.7829958,18.7050855 C19.7829958,19.2826496 19.3048081,19.7509972 18.714804,19.7509972 L16.0839055,19.7509972 C15.4417041,19.7509972 14.7985131,20.1944017 14.7067347,20.6995584 L14.429173,22.2792023 C14.4130933,22.3704986 14.3819232,22.4547721 14.3443213,22.5354131 C13.8490642,24.1743875 12.0157226,25.5 10.1512109,25.5 C9.08029787,25.5 8.11006902,25.0839601 7.48914234,24.3586752 C6.91645498,23.6893305 6.68960647,22.8323077 6.85040422,21.9450142 L8.70650496,11.7108689 C9.03131641,9.92247863 10.8515469,8.52155271 12.8508813,8.52155271 Z" id="形状结合" fill="#FFFFFF"></path>
                </g>
            </g>
        </g>
    </g>
</svg>