<?xml version="1.0" encoding="UTF-8"?>
<svg width="22px" height="22px" viewBox="0 0 22 22" version="1.1" xmlns="http://www.w3.org/2000/svg" xmlns:xlink="http://www.w3.org/1999/xlink">
    <!-- Generator: Sketch 63.1 (92452) - https://sketch.com -->
    <title>icon_my_list_about</title>
    <desc>Created with Sketch.</desc>
    <g id="伙办" stroke="none" stroke-width="1" fill="none" fill-rule="evenodd">
        <g id="24我的" transform="translate(-36.000000, -530.000000)" fill="#0D0D14">
            <g id="list" transform="translate(16.000000, 296.000000)">
                <g id="List备份-5" transform="translate(0.000000, 210.000000)">
                    <g id="icon/bars/backicon/bars/back备份" transform="translate(15.000000, 19.000000)">
                        <g id="icon_my_list_about" transform="translate(5.000000, 5.000000)">
                            <path d="M6.34930687,3 C7.27994698,3 8.17414278,3.37336537 8.80298586,4.02472159 C9.37037381,4.6124948 9.68241337,5.37746253 9.68146058,6.17865779 C9.68074598,6.7228101 9.25437132,7.16345517 8.72747705,7.16345517 C8.20129737,7.16271583 7.7751609,6.72083853 7.7758755,6.17643978 C7.77635189,5.82500809 7.60151446,5.56993669 7.45454621,5.41812609 C7.18061836,5.13422054 6.77782531,4.97156632 6.34930687,4.97156632 C5.56039465,4.97156632 4.91821247,5.51300772 4.91749788,6.17865779 L4.91749788,6.17865779 L4.90558797,15.8235602 C4.90511158,16.1749919 5.07994901,16.4298169 5.22667906,16.5818739 C5.50060691,16.8657795 5.90363816,17.0284337 6.3321566,17.0284337 C7.10391856,17.0284337 7.86234142,16.3748594 7.86329421,15.7089629 C7.86329421,15.6599202 7.87091655,15.6128491 7.8775861,15.5657779 L7.8775861,15.5657779 L7.87210754,14.3079186 C7.87401313,12.8181538 9.1426564,11.6108159 10.7004722,11.6108159 L10.7004722,11.6108159 L13.0472002,11.6108159 C13.5733799,11.6108159 13.9999928,12.0522003 13.9999928,12.596599 C13.9999928,13.1409978 13.5733799,13.5823822 13.0472002,13.5823822 L13.0472002,13.5823822 L10.7004722,13.5823822 C10.1923956,13.5823822 9.77816902,13.9064584 9.77769262,14.3049613 L9.77769262,14.3049613 L9.78412397,15.7934938 C9.78460037,15.8844323 9.76887929,15.9706884 9.74720326,16.0544799 C9.55330998,17.6590885 8.04003723,19 6.3321566,19 C5.40127829,19 4.50708249,18.6266346 3.87823942,17.975032 C3.31085146,17.3870123 2.9988119,16.6220446 2.99999276,15.8208493 L2.99999276,15.8208493 L3.0119128,6.17643978 C3.01405658,4.42494956 4.51113186,3 6.34930687,3 Z M15.6684536,3 C16.5386036,3 17.3613644,3.31676589 17.9852814,3.89171935 C18.6403943,4.49546972 19.0009326,5.30719769 18.9999894,6.17775009 L18.9999894,6.17775009 L18.9906928,15.8239728 C18.9890258,17.575415 17.4923393,19 15.6544036,19 C14.7842537,19 13.9614928,18.6832341 13.3373377,18.1082806 C12.6822248,17.5045303 12.3219246,16.6925562 12.3228772,15.8222499 C12.3233534,15.2788007 12.7498555,14.8387251 13.2763748,14.8387251 C13.8024178,14.8392173 14.2284436,15.2802775 14.2279673,15.8239728 C14.2277292,16.1247404 14.3615618,16.41394 14.6051752,16.6384082 C14.8797463,16.8914271 15.2524296,17.0309813 15.6544036,17.0309813 C16.4428728,17.0309813 17.0848882,16.4887627 17.0856026,15.8222499 L17.0856026,15.8222499 L17.0948899,6.17578107 C17.095128,5.87525959 16.9610573,5.58581384 16.7176821,5.3613457 C16.4428728,5.1083268 16.0701895,4.96901872 15.6684536,4.96901872 C14.8626005,4.96901872 14.1284264,5.5405264 14.1274738,6.17085852 C14.1274738,6.17356592 14.1281882,6.17627332 14.1281882,6.17898073 L14.1281882,6.17898073 L14.1239018,7.6722353 C14.1200916,9.15441414 12.850349,10.3604381 11.2936522,10.3604381 L11.2936522,10.3604381 L8.95253451,10.3604381 C8.42649149,10.3604381 7.99998942,9.91962404 7.99998942,9.37592875 C7.99998942,8.83223345 8.42649149,8.39141939 8.95253451,8.39141939 L8.95253451,8.39141939 L11.2936522,8.39141939 C11.7942146,8.39141939 12.2176209,8.0593936 12.2188116,7.66657437 L12.2188116,7.66657437 L12.2233362,6.17208916 C12.2233362,6.16987401 12.2226218,6.16815112 12.2226218,6.16593598 C12.2242887,4.44993616 13.8021797,3 15.6684536,3 Z" id="形状结合"></path>
                        </g>
                    </g>
                </g>
            </g>
        </g>
    </g>
</svg>