<?xml version="1.0" encoding="UTF-8"?>
<svg width="38px" height="38px" viewBox="0 0 38 38" version="1.1" xmlns="http://www.w3.org/2000/svg" xmlns:xlink="http://www.w3.org/1999/xlink">
    <!-- Generator: Sketch 63.1 (92452) - https://sketch.com -->
    <title>icon_huobi_invitation</title>
    <desc>Created with Sketch.</desc>
    <defs>
        <linearGradient x1="100%" y1="100%" x2="50%" y2="0%" id="linearGradient-1">
            <stop stop-color="#F02E19" offset="0%"></stop>
            <stop stop-color="#FFA353" offset="100%"></stop>
        </linearGradient>
    </defs>
    <g id="伙办" stroke="none" stroke-width="1" fill="none" fill-rule="evenodd">
        <g id="16伙币" transform="translate(-32.000000, -446.000000)">
            <g id="编组-2备份-3" transform="translate(16.000000, 426.000000)">
                <g id="icon_huobi_invitation" transform="translate(16.000000, 20.000000)">
                    <rect id="bg" fill="url(#linearGradient-1)" x="0" y="0" width="38" height="38" rx="8"></rect>
                    <g id="编组" transform="translate(8.000000, 6.000000)" stroke="#FFFFFF" stroke-linecap="round" stroke-width="2">
                        <path d="M5.06744868,5 L15.9325513,5 C18.7312259,5 21,7.26877405 21,10.0674487 L21,18 C21,20.209139 19.209139,22 17,22 L13.7911553,22 C13.2898498,22 12.8144427,22.2226688 12.4935147,22.6077824 L11.75,23.5 C11.1747034,24.1903559 10.1486893,24.2836299 9.45833333,23.7083333 C9.38273164,23.6453319 9.31300141,23.5756017 9.25,23.5 L8.5064853,22.6077824 C8.18555732,22.2226688 7.71015021,22 7.20884467,22 L4,22 C1.790861,22 2.86922509e-14,20.209139 2.84217094e-14,18 L2.84217094e-14,10.0674487 C2.80789706e-14,7.26877405 2.26877405,5 5.06744868,5 Z" id="矩形"></path>
                        <path d="M7,15.7390676 C7.8668894,16.4289847 9.07581953,16.8571429 10.4131451,16.8571429 C11.766411,16.8571429 12.9882024,16.4187169 13.8571429,15.7142857" id="路径"></path>
                        <path d="M18,3.02478184 C18.8668894,3.71469896 20.0758195,4.14285714 21.4131451,4.14285714 C22.766411,4.14285714 23.9882024,3.70443121 24.8571429,3" id="路径备份-3" transform="translate(21.428571, 3.571429) rotate(-135.000000) translate(-21.428571, -3.571429) "></path>
                    </g>
                </g>
            </g>
        </g>
    </g>
</svg>