<?xml version="1.0" encoding="UTF-8"?>
<svg width="22px" height="22px" viewBox="0 0 22 22" version="1.1" xmlns="http://www.w3.org/2000/svg" xmlns:xlink="http://www.w3.org/1999/xlink">
    <!-- Generator: Sketch 63.1 (92452) - https://sketch.com -->
    <title>icon_my_list_customer</title>
    <desc>Created with Sketch.</desc>
    <g id="伙办" stroke="none" stroke-width="1" fill="none" fill-rule="evenodd">
        <g id="24我的" transform="translate(-36.000000, -390.000000)">
            <g id="list" transform="translate(16.000000, 296.000000)">
                <g id="List备份" transform="translate(0.000000, 70.000000)">
                    <g id="icon/bars/backicon/bars/back备份" transform="translate(15.000000, 19.000000)">
                        <g id="icon_my_list_customer" transform="translate(5.000000, 5.000000)">
                            <rect id="矩形" fill="#F1F1F1" opacity="0" transform="translate(11.000000, 11.000000) scale(-1, 1) translate(-11.000000, -11.000000) " x="0" y="0" width="22" height="22"></rect>
                            <path d="M9,4 L11.0525923,4 C11.5758311,4 12,4.42416887 12,4.94740769 L12,7 C12,8.65685425 10.6568542,10 9,10 C7.34314575,10 6,8.65685425 6,7 C6,5.34314575 7.34314575,4 9,4 Z" id="矩形备份-3" stroke="#0D0D14" stroke-width="2" stroke-linecap="round" stroke-linejoin="round" fill-rule="nonzero"></path>
                            <path d="M15,5 L16.3333333,5 C16.7015232,5 17,5.37309604 17,5.83333333 L17,7.5 C17,8.88071187 16.1045695,10 15,10" id="路径" stroke="#0D0D14" stroke-width="2" stroke-linecap="round" stroke-linejoin="round" fill-rule="nonzero"></path>
                            <path d="M15,17 C13.9423254,14.6368387 11.6493316,13 8.99103743,13 C6.34766294,13 4.06549979,14.6185168 3,16.9602792" id="路径" stroke="#0D0D14" stroke-width="2" stroke-linecap="round" stroke-linejoin="round" fill-rule="nonzero"></path>
                            <path d="M20,16 C19.6901913,14.8978341 18.2755203,13.3128861 17,13" id="路径" stroke="#0D0D14" stroke-width="2" stroke-linecap="round" stroke-linejoin="round" fill-rule="nonzero"></path>
                        </g>
                    </g>
                </g>
            </g>
        </g>
    </g>
</svg>