<?xml version="1.0" encoding="UTF-8"?>
<svg width="16px" height="16px" viewBox="0 0 16 16" version="1.1" xmlns="http://www.w3.org/2000/svg" xmlns:xlink="http://www.w3.org/1999/xlink">
    <!-- Generator: Sketch 63.1 (92452) - https://sketch.com -->
    <title>icon_delete</title>
    <desc>Created with Sketch.</desc>
    <g id="伙办" stroke="none" stroke-width="1" fill="none" fill-rule="evenodd">
        <g id="8伙办-搜索" transform="translate(-381.000000, -377.000000)" fill="#0D0D14">
            <g id="历史记录" transform="translate(15.000000, 376.000000)">
                <g id="icon/delete" transform="translate(366.000000, 1.000000)">
                    <g id="icon_delete">
                        <path d="M14,4 C14,4.55228475 13.5522847,5 13,5 L13,12 C13,13.1045695 12.1045695,14 11,14 L11,14 L5,14 C3.8954305,14 3,13.1045695 3,12 L3,12 L3,5 C2.44771525,5 2,4.55228475 2,4 C2,3.44771525 2.44771525,3 3,3 L7,3 L7,3 L7,2 C7,1.44771525 7.44771525,1 8,1 C8.55228475,1 9,1.44771525 9,2 L9,3 L13,3 C13.5522847,3 14,3.44771525 14,4 Z M11,5 L5,5 L5,12 L11,12 L11,5 Z M8,6 C8.55228475,6 9,6.44771525 9,7 L9,10 C9,10.5522847 8.55228475,11 8,11 C7.44771525,11 7,10.5522847 7,10 L7,7 C7,6.44771525 7.44771525,6 8,6 Z" id="形状结合"></path>
                    </g>
                </g>
            </g>
        </g>
    </g>
</svg>