<?xml version="1.0" encoding="UTF-8"?>
<svg width="17px" height="17px" viewBox="0 0 17 17" version="1.1" xmlns="http://www.w3.org/2000/svg" xmlns:xlink="http://www.w3.org/1999/xlink">
    <!-- Generator: Sketch 63.1 (92452) - https://sketch.com -->
    <title>icon_toast_star3</title>
    <desc>Created with Sketch.</desc>
    <defs>
        <linearGradient x1="19.0982564%" y1="-7.10542736e-13%" x2="87.4826891%" y2="100%" id="linearGradient-1">
            <stop stop-color="#FFE17A" offset="0%"></stop>
            <stop stop-color="#FFAA15" offset="100%"></stop>
        </linearGradient>
    </defs>
    <g id="伙办" stroke="none" stroke-width="1" fill="none" fill-rule="evenodd">
        <g id="17伙币-扫描名片" transform="translate(-168.000000, -170.000000)" fill="url(#linearGradient-1)">
            <g id="icon_toast_star3" transform="translate(168.500000, 170.621320)">
                <path d="M7.0180168,10.7354301 L4.56068752,12.1203904 C4.32012214,12.255974 4.01519316,12.1708695 3.87960957,11.9303041 C3.79371911,11.777909 3.79371911,11.5917076 3.87960957,11.4393125 L5.26456993,8.9819832 C5.60813178,8.37240287 5.60813178,7.62759713 5.26456993,7.0180168 L3.87960957,4.56068752 C3.74402598,4.32012214 3.82913054,4.01519316 4.06969592,3.87960957 C4.22209101,3.79371911 4.40829244,3.79371911 4.56068752,3.87960957 L7.0180168,5.26456993 C7.62759713,5.60813178 8.37240287,5.60813178 8.9819832,5.26456993 L11.4393125,3.87960957 C11.6798779,3.74402598 11.9848068,3.82913054 12.1203904,4.06969592 C12.2062809,4.22209101 12.2062809,4.40829244 12.1203904,4.56068752 L10.7354301,7.0180168 C10.3918682,7.62759713 10.3918682,8.37240287 10.7354301,8.9819832 L12.1203904,11.4393125 C12.255974,11.6798779 12.1708695,11.9848068 11.9303041,12.1203904 C11.777909,12.2062809 11.5917076,12.2062809 11.4393125,12.1203904 L8.9819832,10.7354301 C8.37240287,10.3918682 7.62759713,10.3918682 7.0180168,10.7354301 Z" id="星形备份-8" transform="translate(8.000000, 8.000000) scale(-1, 1) rotate(-315.000000) translate(-8.000000, -8.000000) "></path>
            </g>
        </g>
    </g>
</svg>