<?xml version="1.0" encoding="UTF-8"?>
<svg width="11px" height="10px" viewBox="0 0 11 10" version="1.1" xmlns="http://www.w3.org/2000/svg" xmlns:xlink="http://www.w3.org/1999/xlink">
    <!-- Generator: Sketch 63.1 (92452) - https://sketch.com -->
    <title>icon_toast_star6</title>
    <desc>Created with Sketch.</desc>
    <defs>
        <linearGradient x1="-2.84217094e-12%" y1="17.5258117%" x2="100%" y2="76.5872192%" id="linearGradient-1">
            <stop stop-color="#FFE9A2" offset="0%"></stop>
            <stop stop-color="#FFC733" offset="100%"></stop>
        </linearGradient>
    </defs>
    <g id="伙办" stroke="none" stroke-width="1" fill="none" fill-rule="evenodd">
        <g id="17伙币-扫描名片" transform="translate(-261.000000, -111.000000)" fill="url(#linearGradient-1)">
            <g id="icon_toast_star6" transform="translate(262.000000, 111.000000)">
                <path d="M4.0180168,7.29903397 L2.56068752,8.12039043 C2.32012214,8.25597402 2.01519316,8.17086946 1.87960957,7.93030408 C1.79371911,7.77790899 1.79371911,7.59170756 1.87960957,7.43931248 L2.70096603,5.9819832 C3.04452788,5.37240287 3.04452788,4.62759713 2.70096603,4.0180168 L1.87960957,2.56068752 C1.74402598,2.32012214 1.82913054,2.01519316 2.06969592,1.87960957 C2.22209101,1.79371911 2.40829244,1.79371911 2.56068752,1.87960957 L4.0180168,2.70096603 C4.62759713,3.04452788 5.37240287,3.04452788 5.9819832,2.70096603 L7.43931248,1.87960957 C7.67987786,1.74402598 7.98480684,1.82913054 8.12039043,2.06969592 C8.20628089,2.22209101 8.20628089,2.40829244 8.12039043,2.56068752 L7.29903397,4.0180168 C6.95547212,4.62759713 6.95547212,5.37240287 7.29903397,5.9819832 L8.12039043,7.43931248 C8.25597402,7.67987786 8.17086946,7.98480684 7.93030408,8.12039043 C7.77790899,8.20628089 7.59170756,8.20628089 7.43931248,8.12039043 L5.9819832,7.29903397 C5.37240287,6.95547212 4.62759713,6.95547212 4.0180168,7.29903397 Z" id="星形备份-7" transform="translate(5.000000, 5.000000) rotate(-345.000000) translate(-5.000000, -5.000000) "></path>
            </g>
        </g>
    </g>
</svg>