<?xml version="1.0" encoding="UTF-8"?>
<svg width="40px" height="40px" viewBox="0 0 40 40" version="1.1" xmlns="http://www.w3.org/2000/svg" xmlns:xlink="http://www.w3.org/1999/xlink">
    <!-- Generator: Sketch 63.1 (92452) - https://sketch.com -->
    <title>icon_byq</title>
    <desc>Created with Sketch.</desc>
    <g id="伙办" stroke="none" stroke-width="1" fill="none" fill-rule="evenodd">
        <g id="19伙币-邀请销售-确定" transform="translate(-143.000000, -713.000000)">
            <g id="弹窗" transform="translate(16.000000, 683.000000)">
                <g id="icon_byq" transform="translate(117.000000, 20.000000)">
                    <rect id="矩形" fill="#EDF2E9" opacity="0" x="0" y="0" width="60" height="60"></rect>
                    <g id="朋友圈" transform="translate(15.000000, 15.000000)" fill-rule="nonzero">
                        <path d="M19.9285866,0.803799716 C19.9285866,0.803799716 17.9449219,0.000745738636 14.9486861,0.000745738636 C11.9525923,0.000745738636 9.96892756,0.920596591 9.96892756,0.920596591 L19.9316051,11.0572798 L19.9285866,0.803799716 L19.9285866,0.803799716 Z" id="路径" fill="#FB5453"></path>
                        <path d="M25.5753551,4.4671875 C23.3762074,2.38171165 21.250071,1.6387429 21.250071,1.6387429 L21.1769176,15.5617543 L28.6488991,8.48320312 C28.6488991,8.48622159 27.7776278,6.55266335 25.5753906,4.46722301 L25.5753551,4.4671875 Z" id="路径" fill="#6468F1"></path>
                        <path d="M28.959446,9.8287642 L18.6862571,19.6567827 L29.0792614,19.6567827 C29.0792614,19.6567827 29.8942472,17.6994318 29.8942472,14.7413352 C29.8911577,11.7862571 28.959446,9.8287642 28.959446,9.8287642 L28.959446,9.8287642 Z" id="路径" fill="#5283F0"></path>
                        <path d="M21.506392,28.2562855 C21.506392,28.2562855 23.5238991,27.4451349 25.6979048,25.3939986 C27.872017,23.3429688 28.6488991,21.3638849 28.6488991,21.3638849 L14.1200639,21.2947798 L21.506392,28.2562855 Z" id="路径" fill="#00B2FE"></path>
                        <path d="M9.97180398,29.0913707 C9.97180398,29.0913707 11.9556108,29.8942827 14.9517045,29.8942827 C17.9508168,29.8942827 19.9316051,28.9744673 19.9316051,28.9744673 L9.96896307,18.8377486 L9.97180398,29.0913707 Z" id="路径" fill="#66D020"></path>
                        <path d="M4.74019886,25.4278054 C6.93955966,27.5134588 9.06569602,28.2562855 9.06569602,28.2562855 L9.1387429,14.3332741 L1.66676136,21.4117543 C1.66974432,21.4089134 2.54101563,23.3423295 4.74019886,25.4278054 Z" id="路径" fill="#9AD122"></path>
                        <path d="M0.821519886,9.8287642 C0.821519886,9.8287642 0.00632102273,11.7856889 0.00632102273,14.7427557 C0.00632102273,17.7 0.93828125,19.6567827 0.93828125,19.6567827 L11.2142756,9.83178267 L0.821519886,9.83178267 L0.821519886,9.8287642 L0.821519886,9.8287642 Z" id="路径" fill="#FFC71A"></path>
                        <path d="M8.80930398,1.6387429 C8.80930398,1.6387429 6.79176136,2.44992898 4.61775568,4.50095881 C2.44367898,6.55202415 1.66676136,8.53128551 1.66676136,8.53128551 L16.1955966,8.60024858 L8.80930398,1.6387429 Z" id="路径" fill="#FF7612"></path>
                    </g>
                </g>
            </g>
        </g>
    </g>
</svg>