<?xml version="1.0" encoding="UTF-8"?>
<svg width="14px" height="13px" viewBox="0 0 14 13" version="1.1" xmlns="http://www.w3.org/2000/svg" xmlns:xlink="http://www.w3.org/1999/xlink">
    <!-- Generator: Sketch 63.1 (92452) - https://sketch.com -->
    <title>icon_toast_star5</title>
    <desc>Created with Sketch.</desc>
    <defs>
        <linearGradient x1="-2.84217094e-12%" y1="17.5258117%" x2="100%" y2="76.5872192%" id="linearGradient-1">
            <stop stop-color="#FFE9A2" offset="0%"></stop>
            <stop stop-color="#FFC733" offset="100%"></stop>
        </linearGradient>
    </defs>
    <g id="伙办" stroke="none" stroke-width="1" fill="none" fill-rule="evenodd">
        <g id="17伙币-扫描名片" transform="translate(-253.000000, -144.000000)" fill="url(#linearGradient-1)">
            <g id="icon_toast_star5" transform="translate(254.000000, 144.000000)">
                <path d="M5.5180168,9.01723202 L3.56068752,10.1203904 C3.32012214,10.255974 3.01519316,10.1708695 2.87960957,9.93030408 C2.79371911,9.77790899 2.79371911,9.59170756 2.87960957,9.43931248 L3.98276798,7.4819832 C4.32632983,6.87240287 4.32632983,6.12759713 3.98276798,5.5180168 L2.87960957,3.56068752 C2.74402598,3.32012214 2.82913054,3.01519316 3.06969592,2.87960957 C3.22209101,2.79371911 3.40829244,2.79371911 3.56068752,2.87960957 L5.5180168,3.98276798 C6.12759713,4.32632983 6.87240287,4.32632983 7.4819832,3.98276798 L9.43931248,2.87960957 C9.67987786,2.74402598 9.98480684,2.82913054 10.1203904,3.06969592 C10.2062809,3.22209101 10.2062809,3.40829244 10.1203904,3.56068752 L9.01723202,5.5180168 C8.67367017,6.12759713 8.67367017,6.87240287 9.01723202,7.4819832 L10.1203904,9.43931248 C10.255974,9.67987786 10.1708695,9.98480684 9.93030408,10.1203904 C9.77790899,10.2062809 9.59170756,10.2062809 9.43931248,10.1203904 L7.4819832,9.01723202 C6.87240287,8.67367017 6.12759713,8.67367017 5.5180168,9.01723202 Z" id="星形备份-4" transform="translate(6.500000, 6.500000) rotate(-285.000000) translate(-6.500000, -6.500000) "></path>
            </g>
        </g>
    </g>
</svg>