<?xml version="1.0" encoding="UTF-8"?>
<svg width="32px" height="32px" viewBox="0 0 32 32" version="1.1" xmlns="http://www.w3.org/2000/svg" xmlns:xlink="http://www.w3.org/1999/xlink">
    <!-- Generator: Sketch 63.1 (92452) - https://sketch.com -->
    <title>icon_alerts_remove</title>
    <desc>Created with Sketch.</desc>
    <g id="伙办" stroke="none" stroke-width="1" fill="none" fill-rule="evenodd">
        <g id="11伙办-添加客户" transform="translate(-345.000000, -498.000000)">
            <g id="弹窗" transform="translate(15.000000, 478.000000)">
                <g id="icon/remove" transform="translate(330.000000, 20.000000)">
                    <g id="icon_alerts_remove">
                        <circle id="椭圆形" fill="#F1F1F1" cx="16" cy="16" r="16"></circle>
                        <path d="M16,8 C16.5522847,8 17,8.44771525 17,9 L17,15 L23,15 C23.5522847,15 24,15.4477153 24,16 C24,16.5522847 23.5522847,17 23,17 L16.999,17 L17,23 C17,23.5522847 16.5522847,24 16,24 C15.4477153,24 15,23.5522847 15,23 L14.999,17 L9,17 C8.44771525,17 8,16.5522847 8,16 C8,15.4477153 8.44771525,15 9,15 L15,15 L15,9 C15,8.44771525 15.4477153,8 16,8 Z" id="形状结合" fill="#0D0D14" transform="translate(16.000000, 16.000000) rotate(45.000000) translate(-16.000000, -16.000000) "></path>
                    </g>
                </g>
            </g>
        </g>
    </g>
</svg>