<?xml version="1.0" encoding="UTF-8"?>
<svg width="12px" height="12px" viewBox="0 0 12 12" version="1.1" xmlns="http://www.w3.org/2000/svg" xmlns:xlink="http://www.w3.org/1999/xlink">
    <!-- Generator: Sketch 63.1 (92452) - https://sketch.com -->
    <title>login_arrow</title>
    <desc>Created with Sketch.</desc>
    <g id="伙办" stroke="none" stroke-width="1" fill="none" fill-rule="evenodd">
        <g id="1登录" transform="translate(-87.000000, -234.000000)">
            <g id="电话号码" transform="translate(27.000000, 210.000000)">
                <g id="icon/arrow" transform="translate(60.000000, 24.000000)">
                    <g id="login_icon_arrow">
                        <rect id="矩形" x="0" y="0" width="12" height="12"></rect>
                        <path d="M6.8,4.06666667 L9.8,8.06666667 C10.1313708,8.50849447 10.0418278,9.13529582 9.6,9.46666667 C9.42690383,9.59648879 9.21637021,9.66666667 9,9.66666667 L3,9.66666667 C2.44771525,9.66666667 2,9.21895142 2,8.66666667 C2,8.45029645 2.07017787,8.23976284 2.2,8.06666667 L5.2,4.06666667 C5.53137085,3.62483887 6.1581722,3.53529582 6.6,3.86666667 C6.67580567,3.92352092 6.74314575,3.990861 6.8,4.06666667 Z" id="三角形" fill="#0D0D14" transform="translate(6.000000, 6.333333) scale(1, -1) translate(-6.000000, -6.333333) "></path>
                    </g>
                </g>
            </g>
        </g>
    </g>
</svg>