<?xml version="1.0" encoding="UTF-8"?>
<svg width="22px" height="22px" viewBox="0 0 22 22" version="1.1" xmlns="http://www.w3.org/2000/svg" xmlns:xlink="http://www.w3.org/1999/xlink">
    <!-- Generator: Sketch 63.1 (92452) - https://sketch.com -->
    <title>navbar_camera_back</title>
    <desc>Created with Sketch.</desc>
    <g id="伙办" stroke="none" stroke-width="1" fill="none" fill-rule="evenodd" opacity="0.9">
        <g id="17伙币-扫描名片" transform="translate(-16.000000, -55.000000)" fill="#FFFFFF">
            <g id="icon/bars/back" transform="translate(5.000000, 44.000000)">
                <g id="navbar_camera_back" transform="translate(11.000000, 11.000000)">
                    <g id="编组-2">
                        <path d="M11,0 C17.0751322,-1.11598369e-15 22,4.92486775 22,11 C22,17.0751322 17.0751322,22 11,22 C4.92486775,22 7.43989126e-16,17.0751322 0,11 C-7.43989126e-16,4.92486775 4.92486775,1.11598369e-15 11,0 Z M11.7071068,6.05025253 C11.3165825,5.65972824 10.6834175,5.65972824 10.2928932,6.05025253 L10.2928932,6.05025253 L6.05025253,10.2928932 L5.97254617,10.380114 C5.66172071,10.7726317 5.68762283,11.3444771 6.05025253,11.7071068 L6.05025253,11.7071068 L10.2928932,15.9497475 L10.380114,16.0274538 C10.7726317,16.3382793 11.3444771,16.3123772 11.7071068,15.9497475 L11.7071068,15.9497475 L11.7848131,15.8625267 C12.0956386,15.470009 12.0697365,14.8981636 11.7071068,14.5355339 L11.7071068,14.5355339 L9.17135931,11.9993593 L15.5487787,12 L15.6653998,11.9932723 C16.1627385,11.9355072 16.5487787,11.5128358 16.5487787,11 C16.5487787,10.4477153 16.1010634,10 15.5487787,10 L15.5487787,10 L9.17135931,9.99935931 L11.7071068,7.46446609 L11.7848131,7.37724528 C12.0956386,6.98472763 12.0697365,6.41288223 11.7071068,6.05025253 Z" id="形状结合"></path>
                    </g>
                </g>
            </g>
        </g>
    </g>
</svg>