<?xml version="1.0" encoding="UTF-8"?>
<svg width="22px" height="22px" viewBox="0 0 22 22" version="1.1" xmlns="http://www.w3.org/2000/svg" xmlns:xlink="http://www.w3.org/1999/xlink">
    <!-- Generator: Sketch 63.1 (92452) - https://sketch.com -->
    <title>navbar_complete@3x</title>
    <desc>Created with Sketch.</desc>
    <g id="伙办" stroke="none" stroke-width="1" fill="none" fill-rule="evenodd">
        <g id="13伙办-完善信息承诺书" transform="translate(-375.000000, -55.000000)">
            <g id="icon/bars/submit" transform="translate(375.000000, 55.000000)">
                <g id="navbar_complete">
                    <rect id="矩形" fill="#D8D8D8" opacity="0" x="0" y="0" width="22" height="22"></rect>
                    <path d="M6.35355339,15.732233 C5.80126864,15.732233 5.35355339,15.2845178 5.35355339,14.732233 C5.35355339,14.1799483 5.80126864,13.732233 6.35355339,13.732233 L12.3525534,13.732233 L12.3535534,2.73223305 C12.3535534,2.1799483 12.8012686,1.73223305 13.3535534,1.73223305 C13.9058381,1.73223305 14.3535534,2.1799483 14.3535534,2.73223305 L14.3534091,14.7150715 C14.3535052,14.7207805 14.3535534,14.7265012 14.3535534,14.732233 C14.3535534,15.2845178 13.9058381,15.732233 13.3535534,15.732233 L6.35355339,15.732233 Z" id="形状结合" fill="#0D0D14" transform="translate(9.853553, 8.732233) rotate(-315.000000) translate(-9.853553, -8.732233) "></path>
                </g>
            </g>
        </g>
    </g>
</svg>