<?xml version="1.0" encoding="UTF-8"?>
<svg width="22px" height="22px" viewBox="0 0 22 22" version="1.1" xmlns="http://www.w3.org/2000/svg" xmlns:xlink="http://www.w3.org/1999/xlink">
    <!-- Generator: Sketch 63.1 (92452) - https://sketch.com -->
    <title>searchbar_search</title>
    <desc>Created with Sketch.</desc>
    <g id="伙办" stroke="none" stroke-width="1" fill="none" fill-rule="evenodd">
        <g id="6伙办" transform="translate(-26.000000, -55.000000)">
            <rect fill="#FFFFFF" x="0" y="0" width="414" height="896"></rect>
            <rect id="bg" fill="#F4F4F4" x="-1" y="44" width="414" height="852"></rect>
            <g id="input/Default备份" transform="translate(0.000000, 44.000000)">
                <rect id="矩形备份" fill="#FFFFFF" x="0" y="0" width="414" height="44"></rect>
                <g id="Bars/Search" transform="translate(0.000000, 2.000000)">
                    <g id="searchbar_search" transform="translate(16.000000, 0.000000)">
                        <rect id="矩形" fill="#F1F1F1" x="0" y="0" width="382" height="40" rx="6"></rect>
                        <text id="搜索" font-family="PingFangSC-Regular, PingFang SC" font-size="16" font-weight="normal"></text>
                        <g id="icon/bars/search" transform="translate(10.000000, 9.000000)">
                            <g id="searchbar_search">
                                <rect id="矩形" opacity="0" x="0" y="0" width="22" height="22"></rect>
                                <path d="M9.5,4 C13.0898509,4 16,6.91014913 16,10.5 C16,11.5220761 15.762964,12.5102577 15.3184476,13.4003963 L15.279,13.474 L17.4148427,15.7796061 C17.7613711,16.1535251 17.7675306,16.7214002 17.4478222,17.1018198 L17.3611145,17.1927986 C16.9871955,17.539327 16.4193204,17.5454866 16.0389008,17.2257781 L15.9479219,17.1390705 L13.3050933,14.2873445 C12.9873797,13.9445178 12.9495299,13.427337 13.2139461,13.0419071 C13.7234835,12.2991733 14,11.4215501 14,10.5 C14,8.01471863 11.9852814,6 9.5,6 C7.01471863,6 5,8.01471863 5,10.5 C5,12.9852814 7.01471863,15 9.48066192,15.000187 C10.1478705,14.987282 10.7514727,14.8595091 11.2990397,14.6185978 C11.8045604,14.3961855 12.3946668,14.6256901 12.6170791,15.1312109 C12.8394914,15.6367316 12.6099867,16.2268379 12.104466,16.4492503 C11.3096172,16.7989573 10.4453842,16.9819017 9.5,17 C5.91014913,17 3,14.0898509 3,10.5 C3,6.91014913 5.91014913,4 9.5,4 Z" id="路径备份" fill="#AEAEB2" fill-rule="nonzero"></path>
                            </g>
                        </g>
                    </g>
                </g>
                <g id="Bars/Search" transform="translate(16.000000, 2.000000)">
                    <g id="searchbar_search">
                        <rect id="矩形" fill="#F1F1F1" x="0" y="0" width="382" height="40" rx="6"></rect>
                        <g id="icon/bars/search" transform="translate(10.000000, 9.000000)">
                            <g id="searchbar_search">
                                <rect id="矩形" opacity="0" x="0" y="0" width="22" height="22"></rect>
                                <path d="M9.5,4 C13.0898509,4 16,6.91014913 16,10.5 C16,11.5220761 15.762964,12.5102577 15.3184476,13.4003963 L15.279,13.474 L17.4148427,15.7796061 C17.7613711,16.1535251 17.7675306,16.7214002 17.4478222,17.1018198 L17.3611145,17.1927986 C16.9871955,17.539327 16.4193204,17.5454866 16.0389008,17.2257781 L15.9479219,17.1390705 L13.3050933,14.2873445 C12.9873797,13.9445178 12.9495299,13.427337 13.2139461,13.0419071 C13.7234835,12.2991733 14,11.4215501 14,10.5 C14,8.01471863 11.9852814,6 9.5,6 C7.01471863,6 5,8.01471863 5,10.5 C5,12.9852814 7.01471863,15 9.48066192,15.000187 C10.1478705,14.987282 10.7514727,14.8595091 11.2990397,14.6185978 C11.8045604,14.3961855 12.3946668,14.6256901 12.6170791,15.1312109 C12.8394914,15.6367316 12.6099867,16.2268379 12.104466,16.4492503 C11.3096172,16.7989573 10.4453842,16.9819017 9.5,17 C5.91014913,17 3,14.0898509 3,10.5 C3,6.91014913 5.91014913,4 9.5,4 Z" id="路径备份" fill="#AEAEB2" fill-rule="nonzero"></path>
                            </g>
                        </g>
                        <g id="icon/bars/search" transform="translate(10.000000, 9.000000)">
                            <g id="searchbar_search">
                                <rect id="矩形" opacity="0" x="0" y="0" width="22" height="22"></rect>
                                <path d="M9.5,4 C13.0898509,4 16,6.91014913 16,10.5 C16,11.5220761 15.762964,12.5102577 15.3184476,13.4003963 L15.279,13.474 L17.4148427,15.7796061 C17.7613711,16.1535251 17.7675306,16.7214002 17.4478222,17.1018198 L17.3611145,17.1927986 C16.9871955,17.539327 16.4193204,17.5454866 16.0389008,17.2257781 L15.9479219,17.1390705 L13.3050933,14.2873445 C12.9873797,13.9445178 12.9495299,13.427337 13.2139461,13.0419071 C13.7234835,12.2991733 14,11.4215501 14,10.5 C14,8.01471863 11.9852814,6 9.5,6 C7.01471863,6 5,8.01471863 5,10.5 C5,12.9852814 7.01471863,15 9.48066192,15.000187 C10.1478705,14.987282 10.7514727,14.8595091 11.2990397,14.6185978 C11.8045604,14.3961855 12.3946668,14.6256901 12.6170791,15.1312109 C12.8394914,15.6367316 12.6099867,16.2268379 12.104466,16.4492503 C11.3096172,16.7989573 10.4453842,16.9819017 9.5,17 C5.91014913,17 3,14.0898509 3,10.5 C3,6.91014913 5.91014913,4 9.5,4 Z" id="路径备份" fill="#AEAEB2" fill-rule="nonzero"></path>
                            </g>
                        </g>
                    </g>
                </g>
            </g>
        </g>
    </g>
</svg>