<?xml version="1.0" encoding="UTF-8"?>
<svg width="22px" height="22px" viewBox="0 0 22 22" version="1.1" xmlns="http://www.w3.org/2000/svg" xmlns:xlink="http://www.w3.org/1999/xlink">
    <!-- Generator: Sketch 63.1 (92452) - https://sketch.com -->
    <title>searchbar_remove</title>
    <desc>Created with Sketch.</desc>
    <g id="伙办" stroke="none" stroke-width="1" fill="none" fill-rule="evenodd">
        <g id="5搜索官网-联想" transform="translate(-372.000000, -520.000000)">
            <g id="input/search" transform="translate(-1.000000, 501.000000)">
                <g id="input/Default">
                    <g>
                        <g id="icon/bars/searchbars/remove" transform="translate(373.000000, 19.000000)">
                            <g id="icon_search_remove">
                                <rect id="矩形" x="0" y="0" width="22" height="22"></rect>
                                <path d="M11,1 C16.5228475,1 21,5.4771525 21,11 C21,16.5228475 16.5228475,21 11,21 C5.4771525,21 1,16.5228475 1,11 C1,5.4771525 5.4771525,1 11,1 Z M8.87867966,7.46446609 C8.48815536,7.0739418 7.85499039,7.0739418 7.46446609,7.46446609 C7.0739418,7.85499039 7.0739418,8.48815536 7.46446609,8.87867966 L7.46446609,8.87867966 L9.58578644,10.9985858 L7.46446609,13.1213203 C7.0739418,13.5118446 7.0739418,14.1450096 7.46446609,14.5355339 C7.85499039,14.9260582 8.48815536,14.9260582 8.87867966,14.5355339 L8.87867966,14.5355339 L11,12.4127993 L13.1213203,14.5355339 C13.5118446,14.9260582 14.1450096,14.9260582 14.5355339,14.5355339 C14.9260582,14.1450096 14.9260582,13.5118446 14.5355339,13.1213203 L14.5355339,13.1213203 L12.4149207,10.9992929 L14.5355339,8.87867966 C14.9260582,8.48815536 14.9260582,7.85499039 14.5355339,7.46446609 C14.1450096,7.0739418 13.5118446,7.0739418 13.1213203,7.46446609 L13.1213203,7.46446609 L11.0007071,9.58507933 Z" id="形状结合" fill="#AEAEB2"></path>
                            </g>
                        </g>
                    </g>
                </g>
            </g>
        </g>
    </g>
</svg>