<?xml version="1.0" encoding="UTF-8"?>
<svg width="30px" height="30px" viewBox="0 0 30 30" version="1.1" xmlns="http://www.w3.org/2000/svg" xmlns:xlink="http://www.w3.org/1999/xlink">
    <!-- Generator: Sketch 63.1 (92452) - https://sketch.com -->
    <title>tabbar_huobi</title>
    <desc>Created with Sketch.</desc>
    <g id="控件" stroke="none" stroke-width="1" fill="none" fill-rule="evenodd">
        <g id="Tab-Bar" transform="translate(-192.000000, -2.000000)">
            <g id="tab2">
                <g transform="translate(138.000000, 0.000000)">
                    <g id="tabber_huobi" transform="translate(54.000000, 2.000000)">
                        <rect id="矩形" x="0" y="0" width="30" height="30"></rect>
                        <path d="M15,6 C19.9705627,6 24,10.0294373 24,15 C24,18.4835334 22.020875,21.5048174 19.1257011,23.0007758 L10.8742989,23.0007758 C7.97912505,21.5048174 6,18.4835334 6,15 C6,10.0294373 10.0294373,6 15,6 Z M15,8 C11.1340068,8 8,11.1340068 8,15 C8,18.8659932 11.1340068,22 15,22 C18.8659932,22 22,18.8659932 22,15 C22,11.1340068 18.8659932,8 15,8 Z" id="形状结合" fill="#131415"></path>
                        <path d="M15,21 C17.5922426,21 20.1089576,21.5489304 22.4204652,22.5961272 C22.9235324,22.8240348 23.1465932,23.416607 22.9186855,23.9196741 C22.6907779,24.4227413 22.0982057,24.6458021 21.5951386,24.4178944 C19.5416525,23.4875908 17.3061651,23 15,23 C12.6981772,23 10.4667494,23.4857539 8.41638502,24.4126793 C7.91313685,24.640187 7.32074222,24.4166551 7.09323459,23.9134069 C6.86572696,23.4101588 7.08925884,22.8177641 7.59250701,22.5902565 C9.90050324,21.5468613 12.4126424,21 15,21 Z" id="路径" fill="#0D0D14" fill-rule="nonzero"></path>
                        <g id="编组" transform="translate(14.792893, 14.792893) rotate(-45.000000) translate(-14.792893, -14.792893) translate(12.292893, 12.292893)" fill="#0D0D14" fill-rule="nonzero">
                            <path d="M2.49921084,3 C3.6590547,3 4.75736126,3.44729282 5.66393685,4.25221135 C6.07692911,4.61889355 6.11447084,5.25094458 5.74778865,5.66393685 C5.38110645,6.07692911 4.74905542,6.11447084 4.33606315,5.74778865 C3.78370577,5.25736877 3.15174883,5 2.49921084,5 C1.84716049,5 1.21566784,5.2569795 0.663591697,5.74669427 C0.250430263,6.11318584 -0.381603379,6.07535244 -0.748094954,5.66219101 C-1.11458653,5.24902957 -1.07675313,4.61699593 -0.663591697,4.25050436 C0.24263034,3.44664729 1.34020613,3 2.49921084,3 Z" id="路径备份"></path>
                            <path d="M2.49921084,-0.414213562 C3.6590547,-0.414213562 4.75736126,0.0330792618 5.66393685,0.837997791 C6.07692911,1.20467999 6.11447084,1.83673102 5.74778865,2.24972329 C5.38110645,2.66271555 4.74905542,2.70025728 4.33606315,2.33357508 C3.78370577,1.8431552 3.15174883,1.58578644 2.49921084,1.58578644 C1.84716049,1.58578644 1.21566784,1.84276594 0.663591697,2.3324807 C0.250430263,2.69897228 -0.381603379,2.66113888 -0.748094954,2.24797745 C-1.11458653,1.83481601 -1.07675313,1.20278237 -0.663591697,0.836290796 C0.24263034,0.0324337232 1.34020613,-0.414213562 2.49921084,-0.414213562 Z" id="路径备份-2" transform="translate(2.500000, 1.085792) scale(1, -1) translate(-2.500000, -1.085792) "></path>
                        </g>
                    </g>
                </g>
            </g>
        </g>
    </g>
</svg>