<?xml version="1.0" encoding="UTF-8"?>
<svg width="30px" height="30px" viewBox="0 0 30 30" version="1.1" xmlns="http://www.w3.org/2000/svg" xmlns:xlink="http://www.w3.org/1999/xlink">
    <!-- Generator: Sketch 63.1 (92452) - https://sketch.com -->
    <title>tabbar_my_n</title>
    <desc>Created with Sketch.</desc>
    <g id="伙办" stroke="none" stroke-width="1" fill="none" fill-rule="evenodd">
        <g id="6伙办" transform="translate(-329.000000, -815.000000)">
            <g id="Tab-Bar" transform="translate(-1.000000, 813.000000)">
                <g id="tab3">
                    <g transform="translate(276.000000, 0.000000)">
                        <g id="icon/tabbar/my/n" transform="translate(54.000000, 2.000000)">
                            <g id="tabber_my">
                                <rect id="矩形" x="0" y="0" width="30" height="30"></rect>
                                <g id="icon/head" transform="translate(7.000000, 7.000000)" fill="#0D0D14" fill-rule="nonzero">
                                    <path d="M8.21212121,0 C5.78541549,0 3.81818182,1.96723368 3.81818182,4.39393939 C3.81818182,6.82064511 5.78541549,8.78787879 8.21212121,8.78787879 C10.6388269,8.78787879 12.6060606,6.82064511 12.6060606,4.39393939 C12.6060606,1.96723368 10.6388269,0 8.21212121,0 Z M8.21212121,2 C9.53425743,2 10.6060606,3.07180317 10.6060606,4.39393939 C10.6060606,5.71607561 9.53425743,6.78787879 8.21212121,6.78787879 C6.88998499,6.78787879 5.81818182,5.71607561 5.81818182,4.39393939 C5.81818182,3.07180317 6.88998499,2 8.21212121,2 Z" id="椭圆形"></path>
                                    <path d="M8,10 C11.0609147,10 13.8965927,11.3851604 15.7829545,13.7205296 C16.1299869,14.1501655 16.0630235,14.7797795 15.6333877,15.1268118 C15.2037518,15.4738442 14.5741378,15.4068809 14.2271054,14.977245 C12.716496,13.1070679 10.4501245,12 8,12 C5.55699222,12 3.29652761,13.1005918 1.78564368,14.9615018 C1.43753043,15.3902624 0.807749779,15.4556399 0.378989229,15.1075267 C-0.0497713215,14.7594134 -0.115148875,14.1296328 0.232964376,13.7008722 C2.11967175,11.3770719 4.94798845,10 8,10 Z" id="路径"></path>
                                </g>
                            </g>
                        </g>
                    </g>
                </g>
            </g>
        </g>
    </g>
</svg>