<?xml version="1.0" encoding="UTF-8"?>
<svg width="30px" height="30px" viewBox="0 0 30 30" version="1.1" xmlns="http://www.w3.org/2000/svg" xmlns:xlink="http://www.w3.org/1999/xlink">
    <!-- Generator: Sketch 63.1 (92452) - https://sketch.com -->
    <title>tabbar_huobi_s</title>
    <desc>Created with Sketch.</desc>
    <g id="伙办" stroke="none" stroke-width="1" fill="none" fill-rule="evenodd">
        <g id="16伙币" transform="translate(-192.000000, -815.000000)">
            <g id="Tab-Bar2" transform="translate(0.000000, 813.000000)">
                <g id="Tab-Bar">
                    <g id="tab2">
                        <g transform="translate(138.000000, 0.000000)">
                            <g id="icon/tabber/huobi/s" transform="translate(54.000000, 2.000000)">
                                <g id="tabber_huobi">
                                    <rect id="矩形" x="0" y="0" width="30" height="30"></rect>
                                    <path d="M15,6 C19.9705627,6 24,10.0294373 24,15 C24,18.4835334 22.020875,21.5048174 19.1257011,23.0007758 L10.8742989,23.0007758 C7.97912505,21.5048174 6,18.4835334 6,15 C6,10.0294373 10.0294373,6 15,6 Z M15,8 C11.1340068,8 8,11.1340068 8,15 C8,18.8659932 11.1340068,22 15,22 C18.8659932,22 22,18.8659932 22,15 C22,11.1340068 18.8659932,8 15,8 Z" id="形状结合" fill="#F02E19"></path>
                                    <path d="M15,21 C17.5922426,21 20.1089576,21.5489304 22.4204652,22.5961272 C22.9235324,22.8240348 23.1465932,23.416607 22.9186855,23.9196741 C22.6907779,24.4227413 22.0982057,24.6458021 21.5951386,24.4178944 C19.5416525,23.4875908 17.3061651,23 15,23 C12.6981772,23 10.4667494,23.4857539 8.41638502,24.4126793 C7.91313685,24.640187 7.32074222,24.4166551 7.09323459,23.9134069 C6.86572696,23.4101588 7.08925884,22.8177641 7.59250701,22.5902565 C9.90050324,21.5468613 12.4126424,21 15,21 Z" id="路径" fill="#F02E19" fill-rule="nonzero"></path>
                                    <g id="编组" transform="translate(14.792893, 14.792893) rotate(-45.000000) translate(-14.792893, -14.792893) translate(11.292893, 11.292893)" fill="#F02E19" fill-rule="nonzero">
                                        <path d="M3.49921084,4 C4.6590547,4 5.75736126,4.44729282 6.66393685,5.25221135 C7.07692911,5.61889355 7.11447084,6.25094458 6.74778865,6.66393685 C6.38110645,7.07692911 5.74905542,7.11447084 5.33606315,6.74778865 C4.78370577,6.25736877 4.15174883,6 3.49921084,6 C2.84716049,6 2.21566784,6.2569795 1.6635917,6.74669427 C1.25043026,7.11318584 0.618396621,7.07535244 0.251905046,6.66219101 C-0.114586528,6.24902957 -0.0767531313,5.61699593 0.336408303,5.25050436 C1.24263034,4.44664729 2.34020613,4 3.49921084,4 Z" id="路径备份"></path>
                                        <path d="M3.49921084,0.585786438 C4.6590547,0.585786438 5.75736126,1.03307926 6.66393685,1.83799779 C7.07692911,2.20467999 7.11447084,2.83673102 6.74778865,3.24972329 C6.38110645,3.66271555 5.74905542,3.70025728 5.33606315,3.33357508 C4.78370577,2.8431552 4.15174883,2.58578644 3.49921084,2.58578644 C2.84716049,2.58578644 2.21566784,2.84276594 1.6635917,3.3324807 C1.25043026,3.69897228 0.618396621,3.66113888 0.251905046,3.24797745 C-0.114586528,2.83481601 -0.0767531313,2.20278237 0.336408303,1.8362908 C1.24263034,1.03243372 2.34020613,0.585786438 3.49921084,0.585786438 Z" id="路径备份-2" transform="translate(3.500000, 2.085792) scale(1, -1) translate(-3.500000, -2.085792) "></path>
                                    </g>
                                </g>
                            </g>
                        </g>
                    </g>
                </g>
            </g>
        </g>
    </g>
</svg>