<?xml version="1.0" encoding="UTF-8"?>
<svg width="30px" height="30px" viewBox="0 0 30 30" version="1.1" xmlns="http://www.w3.org/2000/svg" xmlns:xlink="http://www.w3.org/1999/xlink">
    <!-- Generator: Sketch 63.1 (92452) - https://sketch.com -->
    <title>tabbar_huoban</title>
    <desc>Created with Sketch.</desc>
    <g id="伙办" stroke="none" stroke-width="1" fill="none" fill-rule="evenodd">
        <g id="6伙办" transform="translate(-53.000000, -815.000000)">
            <g id="Tab-Bar" transform="translate(-1.000000, 813.000000)">
                <g id="tab1">
                    <g>
                        <g id="tabbar_huoban" transform="translate(54.000000, 2.000000)">
                            <rect id="tab_huoban" x="0" y="0" width="30" height="30"></rect>
                            <path d="M19.3986252,7 C20.3392549,7 21.228657,7.33656375 21.9031095,7.94745181 C22.6112847,8.58893658 23.0010256,9.45139754 22.999998,10.3763595 L22.999998,10.3763595 L22.9899564,20.6254711 C22.9881544,22.4863784 21.3702405,24 19.3834372,24 C18.4428075,24 17.5534054,23.6634362 16.8786954,23.0525482 C16.1705202,22.4110634 15.7810367,21.5483409 15.7820664,20.6236405 C15.7825813,20.0462258 16.2436288,19.5786454 16.811765,19.5786454 L16.811765,19.5786454 C17.3814457,19.5791684 17.8419784,20.0477949 17.8414636,20.6254711 C17.8412061,20.9450367 17.9858788,21.2523113 18.2492242,21.4908087 C18.5460348,21.7596413 18.9489044,21.9079176 19.3834372,21.9079176 C20.2357701,21.9079176 20.929787,21.3318104 20.9305593,20.6236405 L20.9305593,20.6236405 L20.9405988,10.3742674 C20.9408562,10.0549633 20.7959262,9.7474272 20.5328382,9.50892981 C20.2357701,9.24009722 19.8329006,9.09208239 19.3986252,9.09208239 C18.5275002,9.09208239 17.7338601,9.69930931 17.7330878,10.3658991 C17.7330878,10.3669451 17.7328304,10.3679911 17.7328304,10.3690372 C17.7328304,10.3719138 17.7336026,10.3747904 17.7336026,10.377667 L17.7336026,10.377667 L17.728969,11.96425 C17.7248502,13.539065 16.352262,14.8204655 14.6694771,14.8204655 L14.6694771,14.8204655 L12.1387355,14.8204655 C11.5700845,14.8204655 11.1090369,14.3521005 11.1090369,13.7744243 C11.1090369,13.196748 11.5700845,12.7283831 12.1387355,12.7283831 L12.1387355,12.7283831 L14.6694771,12.7283831 C15.2105837,12.7283831 15.6682847,12.3756057 15.6695719,11.9582353 L15.6695719,11.9582353 L15.6742055,10.3716523 L15.6742055,10.3716523 L15.6740768,10.3670759 C15.6754926,8.54055717 17.3811883,7 19.3986252,7 Z M9.61965519,7.02180996 C10.6254133,7.02180996 11.5917854,7.41799806 12.2713864,8.10916978 C12.8845719,8.73287184 13.2217982,9.54459981 13.2207685,10.3947698 C13.2199962,10.9721845 12.7592061,11.4397649 12.1910699,11.4397649 L12.1910699,11.4397649 C11.6211318,11.4389804 11.1605991,10.9700925 11.1613714,10.3924162 C11.1618862,10.0195025 10.9729365,9.74883936 10.8141055,9.58774901 C10.5180672,9.28648915 10.0827621,9.11389235 9.61965519,9.11389235 C8.76706478,9.11389235 8.07304795,9.68843048 8.07227568,10.3947698 L8.07227568,10.3947698 L8.05940445,20.6292369 C8.0588896,21.0021505 8.24783928,21.2725522 8.40641286,21.433904 C8.7024512,21.7351639 9.13801369,21.9077607 9.60112062,21.9077607 C10.4351765,21.9077607 11.2548165,21.2142354 11.2558462,20.5076346 C11.2558462,20.455594 11.2640838,20.4056455 11.2712917,20.3556971 L11.2712917,20.3556971 L11.2653709,19.0209485 C11.2674303,17.4401188 12.638474,16.1589798 14.3220311,16.1589798 L14.3220311,16.1589798 L16.8581787,16.1589798 C17.4268297,16.1589798 17.8878772,16.6273447 17.8878772,17.205021 C17.8878772,17.7826972 17.4268297,18.2510622 16.8581787,18.2510622 L16.8581787,18.2510622 L14.3220311,18.2510622 C13.7729443,18.2510622 13.3252829,18.5949482 13.324768,19.0178104 L13.324768,19.0178104 L13.3317185,20.5973326 C13.3322334,20.6938299 13.3152433,20.7853585 13.2918177,20.874272 C13.082274,22.5769656 11.4468553,23.9998431 9.60112062,23.9998431 C8.59510512,23.9998431 7.62873302,23.603655 6.94913197,22.9122218 C6.33594648,22.2882582 5.9987202,21.4765302 6.00000365,20.6263602 L6.00000365,20.6263602 L6.01287855,10.3924162 C6.01519537,8.53386251 7.63310924,7.02180996 9.61965519,7.02180996 Z" id="形状结合" fill="#F02E19"></path>
                        </g>
                    </g>
                </g>
            </g>
        </g>
    </g>
</svg>