<?xml version="1.0" encoding="UTF-8"?>
<svg width="22px" height="22px" viewBox="0 0 22 22" version="1.1" xmlns="http://www.w3.org/2000/svg" xmlns:xlink="http://www.w3.org/1999/xlink">
    <!-- Generator: Sketch 63.1 (92452) - https://sketch.com -->
    <title>tabs_menu</title>
    <desc>Created with Sketch.</desc>
    <g id="伙办" stroke="none" stroke-width="1" fill="none" fill-rule="evenodd">
        <g id="6伙办" transform="translate(-375.000000, -103.000000)">
            <g id="Tab" transform="translate(-1.000000, 88.000000)">
                <g id="icon/menu">
                    <g transform="translate(376.000000, 15.000000)">
                        <g id="tabs_menu">
                            <rect id="矩形" opacity="0" x="0" y="0" width="22" height="22"></rect>
                            <g id="编组" transform="translate(3.000000, 3.000000)" fill="#0D0D14" fill-rule="nonzero">
                                <path d="M5,0 L2,0 C0.8954305,0 0,0.8954305 0,2 L0,5 C0,6.1045695 0.8954305,7 2,7 L6,7 C6.55228475,7 7,6.55228475 7,6 L7,2 C7,0.8954305 6.1045695,0 5,0 Z M5,2 L5,5 L2,5 L2,2 L5,2 Z" id="矩形"></path>
                                <path d="M5,8 L2,8 C0.8954305,8 0,8.8954305 0,10 L0,13 C0,14.1045695 0.8954305,15 2,15 L6,15 C6.55228475,15 7,14.5522847 7,14 L7,10 C7,8.8954305 6.1045695,8 5,8 Z M5,10 L5,13 L2,13 L2,10 L5,10 Z" id="矩形备份-6" transform="translate(3.500000, 11.500000) scale(1, -1) translate(-3.500000, -11.500000) "></path>
                                <path d="M13,0 C14.0543618,0 14.9181651,0.815877791 14.9945143,1.85073766 L15,2 L15,6 C15,6.55228475 14.5522847,7 14,7 C13.4871642,7 13.0644928,6.61395981 13.0067277,6.11662113 L13,6 L13,2 L10,2 L10,5 L10.9871362,5 C11.5394209,5 11.9871362,5.44771525 11.9871362,6 C11.9871362,6.51283584 11.601096,6.93550716 11.1037573,6.99327227 L10.9871362,7 L10,7 C8.9456382,7 8.08183488,6.18412221 8.00548574,5.14926234 L8,5 L8,2 C8,0.945638205 8.81587779,0.0818348781 9.85073766,0.00548573643 L10,0 L13,0 Z" id="路径" transform="translate(11.500000, 3.500000) scale(-1, 1) translate(-11.500000, -3.500000) "></path>
                                <path d="M13,8 L10,8 C8.8954305,8 8,8.8954305 8,10 L8,13 C8,14.1045695 8.8954305,15 10,15 L14,15 C14.5522847,15 15,14.5522847 15,14 L15,10 C15,8.8954305 14.1045695,8 13,8 Z M13,10 L13,13 L10,13 L10,10 L13,10 Z" id="矩形备份-7" transform="translate(11.500000, 11.500000) scale(-1, -1) translate(-11.500000, -11.500000) "></path>
                            </g>
                        </g>
                    </g>
                </g>
            </g>
        </g>
    </g>
</svg>